<svg width="40" height="44" viewBox="0 0 40 44" fill="none" xmlns="http://www.w3.org/2000/svg">
<path fill-rule="evenodd" clip-rule="evenodd" d="M4.25735 0.0838422C1.48836 0.637031 -0.440118 3.37213 0.104798 5.97332C0.350163 7.14444 1.46408 9.27035 2.75733 11.0354C3.86522 12.5475 4.56706 13.3774 4.83306 13.4899L5.11257 13.6082L4.82714 13.7259C4.24442 13.9661 4.07416 14.6526 4.34568 15.6674C4.73979 17.1405 5.92447 18.3155 7.41571 18.712C7.80251 18.8147 9.27539 18.8437 14.2259 18.8458C21.2328 18.8486 21.2406 18.8493 22.4623 19.4883C23.5765 20.071 24.5201 21.1515 24.95 22.3368C25.2086 23.0499 25.2983 24.3852 25.1389 25.1493C24.7681 26.9273 23.3518 28.4963 21.5861 29.0852C20.947 29.2984 20.8269 29.3024 13.4363 29.3596C5.16123 29.4237 5.61149 29.389 4.17375 30.0734C1.91562 31.1484 0.396157 33.2556 0.058607 35.7806C-0.217947 37.8485 0.495645 40.0304 1.95806 41.5891C2.9564 42.6531 4.06972 43.3429 5.48003 43.771C5.98783 43.9252 7.06671 43.9417 18.4526 43.9696L30.8713 44L31.2094 43.6634C31.6393 43.2355 31.6785 42.6839 31.3094 42.2566L31.0712 41.981L18.75 41.9304C4.93403 41.8736 6.04853 41.9361 4.68965 41.1415C2.40872 39.8076 1.50089 36.908 2.59941 34.4651C3.03309 33.5005 4.06656 32.4353 4.99542 31.9953C6.13588 31.455 5.76398 31.4793 13.8311 31.4167C20.4598 31.3651 21.3967 31.3391 21.8861 31.1933C24.4666 30.4242 26.4534 28.4327 27.1201 25.947C27.413 24.8547 27.4113 23.292 27.1159 22.2348C26.513 20.0776 25.1818 18.4721 23.2075 17.5215C21.6631 16.7778 21.717 16.7825 14.6202 16.7825C10.1395 16.7825 8.21023 16.7494 7.88166 16.667C7.55349 16.5848 7.28868 16.4198 6.96011 16.0927C6.57331 15.7077 6.48044 15.5403 6.38391 15.0538C6.19806 14.1176 6.14595 13.9993 5.82389 13.7834L5.51773 13.578L5.79122 13.4218C6.41125 13.0676 8.84013 9.62116 9.68854 7.89175C10.5186 6.19986 10.6768 5.30441 10.3727 4.02041C9.93084 2.15464 8.33775 0.573273 6.45438 0.13139C5.79142 -0.0242215 4.89534 -0.0435749 4.25735 0.0838422ZM6.6423 2.44288C7.70864 2.9604 8.39036 4.01815 8.39036 5.15508C8.39036 5.67182 8.32472 5.89375 7.93427 6.69764C7.43367 7.72838 6.75166 8.83239 5.84788 10.0754L5.26023 10.8837L4.7012 10.1245C3.87736 9.00549 3.06536 7.70755 2.59773 6.76199C2.21715 5.99258 2.18468 5.86516 2.18468 5.14103C2.18468 4.2217 2.42333 3.62637 3.03654 3.01601C4.02284 2.0343 5.36198 1.82141 6.6423 2.44288ZM4.31943 3.3848C3.01542 4.03161 2.7665 5.63125 3.80847 6.66847C4.85053 7.70558 6.45764 7.45782 7.10747 6.15988C7.53859 5.2989 7.4013 4.43508 6.72679 3.76371C6.05228 3.09234 5.18442 2.95569 4.31943 3.3848ZM33.8943 30.441C32.4268 30.6678 30.9655 31.6621 30.2056 32.9508C29.576 34.0184 29.3388 35.4476 29.6116 36.5287C29.9635 37.9236 31.4288 40.4427 33.2254 42.7417C34.0598 43.8095 34.4016 44.0551 34.9185 43.9586C35.3167 43.8843 35.5971 43.6098 36.5372 42.3739C38.8992 39.2691 40.1465 36.6933 39.9863 35.2515C39.8363 33.9018 39.3295 32.8119 38.4407 31.9271C37.26 30.752 35.5338 30.1877 33.8943 30.441ZM36.137 32.8194C36.7263 33.1226 37.2649 33.6639 37.5797 34.2691C37.7632 34.622 37.8101 34.8698 37.8122 35.4971C37.8146 36.2022 37.7777 36.3606 37.4536 37.0362C37.0436 37.8907 36.1382 39.3547 35.3168 40.4915L34.7604 41.2615L34.5326 40.9827C34.0793 40.428 32.9448 38.7196 32.4555 37.8549C31.7865 36.6727 31.511 35.8372 31.5982 35.2554C31.7792 34.0478 32.5585 33.0773 33.6955 32.6438C34.2882 32.4177 35.5298 32.507 36.137 32.8194ZM34.2357 33.5794C33.6705 33.7128 33.169 34.1218 32.8921 34.6748C32.4566 35.5445 32.5862 36.3893 33.2575 37.0563C33.9484 37.7431 34.8077 37.8826 35.6801 37.4499C36.937 36.8264 37.2165 35.2966 36.2693 34.2255C35.9778 33.8959 35.7467 33.7431 35.3721 33.6324C34.8232 33.4702 34.719 33.4652 34.2357 33.5794Z" fill="white"/>
</svg>
