<svg width="40" height="51" viewBox="0 0 40 51" fill="none" xmlns="http://www.w3.org/2000/svg">
<path fill-rule="evenodd" clip-rule="evenodd" d="M15.3856 0.0840791C14.4687 0.315133 13.8795 0.786111 12.7416 2.19735C11.9181 3.21885 11.6804 3.33049 10.0525 3.46097C8.45354 3.58906 7.83261 3.79948 7.14222 4.44738C6.49973 5.05034 6.20019 5.71997 5.93198 7.15315C5.81464 7.78052 5.65858 8.40849 5.58524 8.54864C5.38907 8.92353 4.99364 9.25137 3.97298 9.88562C2.33258 10.9049 1.79257 11.712 1.79616 13.1394C1.79786 13.8199 1.86351 14.1918 2.13013 15.029C2.5977 16.4978 2.56118 16.7814 1.71743 18.2343C0.959796 19.5388 0.79885 20.0604 0.866202 20.9938C0.933354 21.9245 1.2789 22.5473 2.33607 23.6436C3.58892 24.9426 3.58653 24.9364 3.5523 26.7774C3.51958 28.5469 3.63213 29.0621 4.22193 29.8417C4.70288 30.4774 5.20408 30.8065 6.21236 31.149C6.82003 31.3555 7.02987 31.4701 7.00033 31.5798C6.97828 31.6621 5.39506 34.4655 3.48226 37.8097C0.307528 43.3599 0.00389489 43.9304 0.000103216 44.3531C-0.00279043 44.6794 0.0549827 44.8821 0.195574 45.0397C0.610762 45.5048 0.802541 45.5249 3.43845 45.3796C4.783 45.3055 6.1525 45.2438 6.48177 45.2424L7.08046 45.24L8.44975 47.8595C9.2029 49.3001 9.93619 50.5887 10.0793 50.723C10.452 51.0728 11.2147 51.0702 11.5632 50.718C11.6989 50.581 13.4059 47.6676 15.3566 44.2438L18.9032 38.0188L19.9801 38.0089L21.0571 37.9988L24.5458 44.1309C26.4646 47.5036 28.1692 50.413 28.3339 50.5963C28.5492 50.8361 28.7453 50.9444 29.0324 50.982C29.782 51.0802 29.9461 50.8761 31.5085 47.9021L32.9095 45.2357L33.5152 45.2398C33.8485 45.242 35.1987 45.3043 36.5158 45.3783C39.1464 45.526 39.4349 45.4944 39.7877 45.0193C40.2497 44.3973 40.2811 44.4655 36.4241 37.7026C34.4654 34.2681 32.8765 31.4461 32.8933 31.4314C32.9101 31.4169 33.1912 31.3282 33.5181 31.2344C34.8124 30.8632 35.686 30.1856 36.1572 29.1876C36.4051 28.6627 36.416 28.5652 36.416 26.895C36.416 25.5811 36.4507 25.0891 36.5563 24.9014C36.6335 24.7644 37.1138 24.2129 37.6238 23.6761C38.8419 22.3934 39.1028 21.8705 39.1008 20.7149C39.0991 19.7348 39.029 19.5393 38.1436 18.0432C37.3932 16.7752 37.3673 16.4835 37.8676 14.9336C38.3312 13.4974 38.3333 12.6336 37.8754 11.7045C37.4967 10.9359 37.0494 10.5189 35.731 9.7053C34.4964 8.94346 34.3615 8.73872 34.0355 7.13112C33.6488 5.22438 33.1307 4.42117 31.9211 3.8536C31.4122 3.61477 31.1071 3.55377 29.9754 3.46496C28.2445 3.329 28.0159 3.22194 27.1617 2.14811C25.7672 0.395274 25.1919 0.0348382 23.7938 0.0380279C22.9904 0.0398221 22.8797 0.06833 21.6984 0.577386C20.0633 1.28201 19.8574 1.28261 18.2606 0.586556C16.9832 0.029655 16.1674 -0.112885 15.3856 0.0840791ZM17.8231 2.01096C19.674 2.81954 20.2772 2.82094 22.1456 2.02082C23.3862 1.48964 23.8134 1.40232 24.3335 1.57377C24.8347 1.73903 25.1628 2.03707 26.005 3.09206C27.1302 4.50161 27.7059 4.78051 29.8503 4.95564C31.1365 5.0607 31.4609 5.16796 31.8888 5.62977C32.2743 6.04592 32.3314 6.19913 32.5694 7.45776C32.9451 9.44414 33.3399 10.0076 35.1186 11.096C36.7145 12.0726 36.9944 12.6798 36.5319 14.162C36.0725 15.6344 35.9897 16.1231 36.0771 16.8477C36.1635 17.5633 36.3128 17.9124 37.0768 19.1846C37.6219 20.0922 37.7582 20.674 37.5637 21.2627C37.4875 21.4934 37.08 22.0215 36.4966 22.6457C35.8658 23.3205 35.4477 23.8703 35.236 24.3033L34.9193 24.9513V26.6458C34.9193 28.0384 34.8898 28.3935 34.7536 28.6393C34.4294 29.2244 34.0448 29.4756 32.8679 29.8708C30.7601 30.5786 30.4407 30.8552 29.4813 32.8039C28.7861 34.2158 28.5605 34.4612 27.7596 34.6767C27.4441 34.7616 27.1227 34.7395 26.1532 34.5666C24.1648 34.2118 23.5225 34.365 21.9346 35.5723C20.1966 36.8938 19.8045 36.8951 18.0564 35.5848C16.3904 34.3361 15.8531 34.205 13.8541 34.5593C11.7704 34.9286 11.4242 34.742 10.4335 32.7148C10.1151 32.0632 9.72515 31.3767 9.5671 31.1893C9.12607 30.6667 8.48458 30.3122 7.28122 29.9262C5.93976 29.4958 5.52428 29.2374 5.24389 28.6587C5.05052 28.2597 5.03096 28.066 5.04463 26.6835C5.05291 25.8404 5.02537 25.016 4.98326 24.8516C4.8276 24.2426 4.50641 23.7766 3.54652 22.7671C2.92508 22.1134 2.51758 21.5957 2.44025 21.3615C2.23011 20.7256 2.35882 20.1111 2.89335 19.1972C3.74598 17.7394 3.86482 17.4392 3.91002 16.6281C3.94574 15.9862 3.90124 15.7117 3.59531 14.6861C3.19928 13.359 3.16715 13.0055 3.39335 12.4648C3.61417 11.9369 3.871 11.6978 4.88528 11.0762C5.95842 10.4185 6.56559 9.8617 6.88179 9.24519C7.01021 8.9948 7.23232 8.23605 7.37541 7.55913C7.6995 6.02589 7.84718 5.7108 8.40834 5.35525C8.86863 5.06359 8.9724 5.04256 10.7336 4.88358C12.3851 4.73446 12.9505 4.38977 14.2714 2.72634C14.6211 2.28597 15.0083 1.86303 15.1317 1.78658C15.8202 1.35986 16.4537 1.41269 17.8231 2.01096ZM18.5054 5.77081C13.9962 6.2701 10.0304 9.07504 8.02259 13.1853C6.85934 15.5665 6.43428 18.0107 6.73901 20.5654C7.34139 25.6152 10.8064 29.9393 15.5722 31.589C17.0798 32.1108 18.2915 32.3066 20.0021 32.3047C21.7412 32.3028 22.9262 32.1074 24.4611 31.5695C28.9343 30.0016 32.2906 26.0218 33.1311 21.2889C33.3458 20.0797 33.3458 17.9611 33.1311 16.7519C32.289 12.0104 28.9541 8.05653 24.4611 6.47304C22.6606 5.83849 20.3523 5.56637 18.5054 5.77081ZM21.2494 7.26189C25.7468 7.77055 29.5186 10.7172 31.1206 14.9735C32.0261 17.3794 32.0291 20.6553 31.128 23.0469C30.0166 25.9965 27.9491 28.2758 25.146 29.6417C18.196 33.0284 9.95235 28.9578 8.38001 21.3628C7.25877 15.9469 10.1628 10.388 15.2721 8.17006C17.175 7.34403 19.2235 7.03283 21.2494 7.26189ZM19.4795 9.50764C19.1055 9.71038 19.0484 9.84565 18.1028 12.7656L17.2716 15.3323L14.5208 15.3329C12.8981 15.3332 11.6146 15.3766 11.3908 15.4387C10.6538 15.6431 10.4137 16.5341 10.943 17.1005C11.0687 17.235 12.1633 18.0645 13.3756 18.9438L15.5798 20.5426L14.6994 23.2453C14.2152 24.7318 13.8183 26.0759 13.8174 26.2321C13.815 26.6375 14.3893 27.194 14.8101 27.194C15.2336 27.194 15.2125 27.207 17.7131 25.3932C18.9175 24.5196 19.9422 23.805 19.9905 23.805C20.0388 23.805 20.8581 24.3731 21.8113 25.0675C24.5294 27.0477 24.7595 27.194 25.1548 27.194C25.5515 27.194 26.0354 26.7929 26.1397 26.3778C26.1808 26.2142 25.9193 25.2606 25.3436 23.4746C24.872 22.0118 24.4629 20.7546 24.4346 20.6807C24.4009 20.5933 25.1847 19.9651 26.6822 18.879C27.9467 17.9618 29.0489 17.1151 29.1315 16.9973C29.3292 16.7155 29.3228 16.1331 29.119 15.8424C28.7907 15.3741 28.4937 15.3323 25.4961 15.3323H22.702L21.835 12.6659C21.358 11.1994 20.9071 9.90555 20.8329 9.79063C20.5602 9.36889 19.9651 9.24449 19.4795 9.50764ZM20.7462 14.1614C21.1628 15.4618 21.4966 16.3317 21.6447 16.5038L21.8803 16.7777L24.3904 16.8275L26.9004 16.8773L24.9862 18.2636C22.9977 19.7036 22.6988 20.0232 22.8494 20.5478C22.8838 20.6672 23.2029 21.6777 23.5587 22.7935C23.9145 23.9093 24.1883 24.8396 24.167 24.8607C24.1459 24.882 23.3504 24.3339 22.3993 23.643C20.5419 22.2933 20.198 22.1007 19.7873 22.1791C19.6417 22.2069 18.6763 22.8473 17.642 23.6021C16.6076 24.3571 15.7526 24.9682 15.7419 24.9601C15.7313 24.9522 16.0344 23.9858 16.4155 22.8127C17.138 20.5885 17.219 20.1089 16.9316 19.7551C16.8367 19.6384 15.9294 18.9432 14.9153 18.2101L13.0714 16.8773L15.5786 16.8275C17.8773 16.7818 18.1035 16.7616 18.2988 16.5849C18.4418 16.4555 18.7471 15.6604 19.2273 14.1679C19.6207 12.9446 19.9743 11.9773 20.013 12.0182C20.0516 12.0593 20.3815 13.0237 20.7462 14.1614ZM9.16867 33.5377C9.75429 34.7603 10.3146 35.457 10.9878 35.7998L11.4116 36.0155L10.768 37.1618C10.414 37.7923 10.1243 38.3806 10.1241 38.4691C10.1239 38.5576 10.2169 38.7483 10.3306 38.8927C10.5352 39.1526 10.9035 39.2327 11.262 39.0953C11.3481 39.0623 11.7831 38.3974 12.2286 37.6177L13.0385 36.2003L14.1006 36.0322C15.4112 35.8246 15.6382 35.824 16.0408 36.0268C16.5786 36.2976 17.6073 37.1046 17.5817 37.2356C17.5489 37.4029 10.8852 49.1157 10.8222 49.1167C10.7948 49.1172 10.2248 48.0635 9.55542 46.7754L8.3385 44.4331L9.09563 43.115C9.93469 41.6542 10.0323 41.2591 9.63375 40.9367C9.35477 40.7111 9.04485 40.6985 8.75518 40.9011C8.63654 40.9841 8.2016 41.65 7.7886 42.381L7.03775 43.7099L5.66217 43.7757C4.90563 43.812 3.70876 43.8707 3.00251 43.9063L1.71853 43.971L1.84595 43.7312C2.00959 43.4232 7.52319 33.7449 8.05133 32.8386C8.35037 32.3255 8.4739 32.1879 8.54365 32.2903C8.59493 32.3656 8.87612 32.9269 9.16867 33.5377ZM34.9169 38.0805L38.2305 43.8901L37.7224 43.9141C37.4429 43.9273 36.2508 43.8824 35.0732 43.8144L32.932 43.6907L32.1634 42.3502C31.7407 41.6129 31.3149 40.9513 31.2173 40.8799C30.7883 40.5666 30.08 40.9179 30.08 41.4439C30.08 41.587 30.4167 42.2977 30.8283 43.0232C31.2399 43.7485 31.5767 44.392 31.5767 44.453C31.5767 44.5611 29.3223 48.8999 29.1888 49.0487C29.1517 49.09 27.7208 46.6678 26.0089 43.6661C24.2971 40.6644 22.7608 37.9733 22.5952 37.6859L22.2939 37.1633L23.0971 36.5684C23.5698 36.2183 24.0529 35.9445 24.2711 35.9032C24.4991 35.8599 25.0839 35.9067 25.7894 36.0244L26.9369 36.2159L27.7098 37.561C28.1349 38.3008 28.5588 38.9623 28.6519 39.0308C28.905 39.2174 29.3558 39.1811 29.5811 38.956C29.915 38.6224 29.8297 38.233 29.174 37.0981C28.8403 36.5206 28.5821 36.0352 28.6002 36.0196C28.6183 36.0039 28.7784 35.9172 28.9561 35.8269C29.7556 35.4208 30.186 34.8807 30.8314 33.4737C31.2727 32.5116 31.4817 32.1494 31.5536 32.2214C31.581 32.2487 33.0944 34.8854 34.9169 38.0805Z" fill="white"/>
</svg>
