<svg width="50" height="50" viewBox="0 0 50 50" fill="none" xmlns="http://www.w3.org/2000/svg">
<path fill-rule="evenodd" clip-rule="evenodd" d="M17.2058 0.146287C16.7707 0.387442 16.7141 0.634552 16.7103 2.31112L16.7069 3.87989L15.616 4.24104C15.016 4.43963 14.0278 4.84295 13.42 5.13741C12.8121 5.43188 12.2838 5.67274 12.2459 5.67274C12.2079 5.67274 11.6653 5.16749 11.0401 4.54995C9.93916 3.46261 9.88986 3.42717 9.47658 3.42717H9.04982L6.23924 6.23765L3.42876 9.04823V9.47498C3.42876 9.88856 3.46381 9.93718 4.56844 11.0556L5.70811 12.2095L5.16703 13.359C4.58562 14.5943 4.32006 15.2573 4.05137 16.1439L3.88129 16.7053H2.33214C0.639073 16.7053 0.338459 16.7782 0.128254 17.2396C-0.0560784 17.644 -0.035673 25.0201 0.15071 25.3806C0.376536 25.8172 0.662115 25.8829 2.33507 25.8829H3.86831L4.19128 26.8836C4.36887 27.434 4.78303 28.4455 5.11147 29.1313L5.7088 30.3781L4.56873 31.5323C3.46381 32.6511 3.42876 32.6997 3.42876 33.1133V33.54L6.23924 36.3506L9.04982 39.1611H9.47658C9.89015 39.1611 9.93877 39.126 11.0576 38.0211L12.2117 36.881L13.4586 37.4784C14.1443 37.8068 15.1558 38.221 15.7062 38.3986L16.7069 38.7215V40.2548C16.7069 41.2355 16.7489 41.8803 16.8236 42.044C17.0619 42.5671 17.1552 42.5782 21.2957 42.5782C25.9909 42.5782 25.7665 42.6428 25.8781 41.2602L25.9333 40.5768L26.3616 41.3578C28.0771 44.4862 30.9544 47.2539 34.1695 48.8687C35.1519 49.362 36.7563 49.9984 37.0178 49.9984C37.3064 49.9984 38.6914 49.4573 39.7698 48.9233C45.3025 46.1837 49.137 40.7306 49.8566 34.5788C49.9543 33.7434 50 32.3526 50 30.2113V27.0694L49.7658 26.7935C49.6369 26.6417 47.9685 25.5949 46.0581 24.4672L42.5848 22.4169L42.5824 19.9562C42.5806 18.2613 42.5435 17.4159 42.4632 17.2396C42.2529 16.778 41.9527 16.7053 40.2542 16.7053H38.7L38.3331 15.5899C38.1314 14.9763 37.7147 13.9769 37.4073 13.3687L36.8484 12.263L38.0055 11.0827C39.127 9.93874 39.1627 9.88924 39.1627 9.47528V9.04823L36.3522 6.23765L33.5416 3.42717H33.1146C32.7006 3.42717 32.6511 3.4628 31.5071 4.58432L30.3268 5.74147L29.2211 5.18252C28.613 4.87517 27.6135 4.45847 27 4.25676L25.8845 3.88985V2.34509C25.8845 0.659937 25.8194 0.375238 25.3822 0.149118C25.0012 -0.0479066 17.5608 -0.0505427 17.2058 0.146287ZM23.9495 3.51719C23.9875 5.41225 24.0054 5.44369 25.2348 5.77008C26.7612 6.17536 28.0382 6.69985 29.3731 7.46978C30.5879 8.1704 30.655 8.1539 32.0042 6.82277L33.1145 5.72732L34.9885 7.6013L36.8625 9.47537L35.7671 10.5857C34.4359 11.9349 34.4194 12.0019 35.12 13.2167C35.89 14.5516 36.4145 15.8286 36.8197 17.355C37.1461 18.5844 37.1776 18.6024 39.0726 18.6403L40.6272 18.6715V19.934C40.6272 20.6284 40.6107 21.1965 40.5905 21.1965C40.5703 21.1965 39.8136 20.7571 38.9089 20.2202C37.9813 19.6696 37.1564 19.2443 37.0173 19.2449C36.8791 19.2455 35.9501 19.7326 34.9057 20.3522L33.0409 21.4583L32.9237 20.2492C32.3769 14.6106 28.0551 10.2527 22.4351 9.67328C16.0616 9.0162 10.3386 13.7171 9.67487 20.1547C9.01877 26.519 13.7195 32.2513 20.1373 32.913C21.2034 33.0229 22.4088 32.9691 23.6537 32.7559L24.01 32.6949L24.0784 33.5603C24.1425 34.3747 24.4595 36.4741 24.573 36.8363C24.6051 36.9389 24.5494 37.0414 24.4256 37.1077C24.0187 37.3256 23.9318 37.6943 23.9318 39.205V40.6256H21.2957H18.6596L18.6594 39.2343C18.6593 38.1054 18.6271 37.7786 18.4885 37.5014C18.3047 37.1333 18.2338 37.1007 16.4649 36.5716C15.4384 36.2647 14.205 35.724 13.129 35.1094C11.9594 34.4413 11.9188 34.4518 10.5873 35.7655L9.47697 36.8609L7.60289 34.9869L5.72891 33.1129L6.82436 32.0026C8.13802 30.671 8.14856 30.6304 7.48046 29.4608C6.86585 28.3849 6.32516 27.1515 6.0182 26.1249C5.48912 24.356 5.45651 24.2851 5.08843 24.1013C4.81125 23.9627 4.48447 23.9305 3.35553 23.9304L1.96425 23.9302V21.2941V18.658H3.33425C5.27911 18.658 5.48297 18.5437 5.77206 17.2911C6.04973 16.0878 6.71589 14.5162 7.67494 12.8015C8.12464 11.9976 8.06548 11.8436 6.82436 10.5857L5.72891 9.47537L7.60289 7.6013L9.47697 5.72732L10.6003 6.83575L11.7238 7.94419L12.1406 7.89176C12.3911 7.86032 12.9471 7.62092 13.5338 7.2918C14.6875 6.64478 15.6793 6.24233 17.1434 5.8271C18.1018 5.55529 18.2378 5.4887 18.437 5.19307C18.6439 4.88611 18.6596 4.76045 18.6596 3.41272V1.96266H21.289H23.9183L23.9495 3.51719ZM23.6977 11.8726C26.4507 12.5709 28.7887 14.4798 30.0439 17.054C30.7731 18.5497 31.1632 20.5626 31.012 22.0494L30.9447 22.7098L27.6951 24.6407C25.9078 25.7027 24.3629 26.6628 24.2619 26.7742C24.0984 26.9546 24.075 27.1782 24.048 28.8165L24.0177 30.6562L23.2669 30.8319C22.1056 31.1036 20.1696 31.0574 18.9106 30.7279C15.4399 29.8193 12.778 27.1581 11.86 23.6792C11.6403 22.8468 11.6042 22.5097 11.6042 21.2941C11.6042 20.0786 11.6403 19.7415 11.86 18.909C12.8829 15.0323 16.0839 12.187 20.0509 11.6283C21.0151 11.4925 22.6242 11.6003 23.6977 11.8726ZM19.6359 15.4833C19.2332 15.5519 18.706 15.6606 18.4643 15.7249C17.0457 16.1024 14.9181 17.3196 14.0443 18.2537C13.6591 18.6655 13.5827 18.8095 13.5827 19.1236C13.5827 19.7228 14.165 20.2006 14.7243 20.0602C14.8615 20.0259 15.197 19.7993 15.4699 19.5569C17.1397 18.0739 19.0684 17.34 21.2957 17.34C23.523 17.34 25.4517 18.0739 27.1215 19.5569C27.3944 19.7993 27.73 20.0259 27.8671 20.0602C28.4264 20.2006 29.0088 19.7228 29.0088 19.1236C29.0088 18.8116 28.9327 18.666 28.5639 18.2717C28.0278 17.6986 26.9194 16.9179 25.989 16.458C24.027 15.4884 21.7007 15.1315 19.6359 15.4833ZM19.9996 20.5683C18.3626 20.9649 16.9574 22.1176 17.1543 22.9022C17.2558 23.3067 17.6653 23.6373 18.0648 23.6373C18.3358 23.6373 18.5763 23.5232 19.0819 23.1545C20.5292 22.0995 22.0622 22.0995 23.5096 23.1545C24.2989 23.7301 24.7268 23.7922 25.1293 23.3896C25.6621 22.8567 25.5202 22.2344 24.7223 21.6036C23.4261 20.5791 21.6039 20.1796 19.9996 20.5683ZM42.531 24.6407L47.9985 27.889L48.0246 30.6204C48.0437 32.6224 48.0113 33.6546 47.9033 34.4855C47.2428 39.5657 44.3983 43.9193 40.0104 46.5659C38.7452 47.329 37.1871 47.988 36.8489 47.9032C36.3675 47.7823 34.6429 46.9561 33.8653 46.4738C31.2958 44.8802 29.0907 42.484 27.7881 39.8701C26.3596 37.0035 25.9437 34.7603 26.0013 30.2331L26.0309 27.8953L31.4984 24.6455C34.5055 22.858 36.9879 21.3949 37.0147 21.394C37.0416 21.3931 39.5239 22.8541 42.531 24.6407ZM32.5724 26.2741C30.3171 27.6137 28.3454 28.8494 28.191 29.0202L27.9102 29.3306L27.9645 31.7807C28.0066 33.6808 28.0622 34.441 28.2127 35.1681C28.9891 38.9216 31.0213 42.0862 34.0488 44.2567C35.0201 44.953 36.6366 45.8002 36.9939 45.8002C37.1426 45.8002 37.5926 45.6432 37.9938 45.4513C40.6354 44.1882 43.1721 41.6715 44.5341 38.9628C45.0218 37.9928 45.5539 36.4547 45.8111 35.2713C46.0897 33.9901 46.2044 29.5952 45.9709 29.1497C45.7506 28.7292 37.4981 23.8334 37.0147 23.8364C36.7449 23.8381 35.8101 24.351 32.5724 26.2741ZM21.0028 24.9719C20.2391 25.27 20.1228 26.3588 20.8164 26.7174C21.823 27.2379 22.7644 25.9831 21.945 25.2132C21.7131 24.9954 21.2479 24.8762 21.0028 24.9719ZM40.638 28.0552L44.1376 30.13L44.1397 31.6796C44.1425 33.5788 43.9513 34.9616 43.4975 36.3249C42.48 39.3821 40.3969 41.9151 37.6738 43.4068L37.0147 43.7678L36.3613 43.4086C33.8481 42.0271 31.7396 39.5853 30.7124 36.8667C30.1629 35.4122 29.9766 34.296 29.9221 32.1315L29.8717 30.13L33.3701 28.0604C35.294 26.9221 36.9291 25.9885 37.0034 25.9857C37.0777 25.9829 38.7133 26.9142 40.638 28.0552ZM40.1878 31.6578C40.0804 31.7163 39.2596 32.4913 38.3638 33.3801L36.7351 34.9962L36.1371 34.4425C35.5759 33.9229 35.3995 33.8421 34.9156 33.8828C34.5845 33.9105 34.1833 34.4309 34.1833 34.8325C34.1833 35.152 34.286 35.2915 35.2178 36.237C36.312 37.3474 36.553 37.4808 37.0635 37.2582C37.4337 37.0969 41.3687 33.1434 41.4861 32.8149C41.7527 32.0691 40.8729 31.2851 40.1878 31.6578Z" fill="#01133C"/>
</svg>
