<svg width="38" height="50" viewBox="0 0 38 50" fill="none" xmlns="http://www.w3.org/2000/svg">
<path fill-rule="evenodd" clip-rule="evenodd" d="M9.43737 5.08329C4.45654 7.87857 0.295514 10.2526 0.190654 10.3589C0.00324112 10.5489 0 10.6817 0 18.2403C0 26.5305 0.0106766 26.7582 0.524489 29.3953C2.05496 37.2502 7.04333 44.1123 13.9659 47.8852C15.2337 48.5763 18.4094 50.0025 18.6744 50C18.99 49.997 23.1231 48.124 24.2967 47.4522C26.7174 46.0666 28.5235 44.6491 30.4594 42.6156C34.4669 38.4057 36.8995 33.3183 37.7615 27.3444C37.9006 26.3808 37.929 25.1168 37.9618 18.4414L38 10.6613L37.7318 10.3712C37.3949 10.0067 19.0546 -0.00126948 18.7259 1.20785e-07C18.598 0.00048843 14.4182 2.28792 9.43737 5.08329ZM27.5018 6.77626L36.1289 11.4938L36.1252 18.711C36.1217 25.7046 36.1149 25.9718 35.9071 27.3304C35.0805 32.7347 32.8724 37.3662 29.3245 41.1368C26.7242 43.9003 24.3064 45.5612 20.3414 47.3073L18.6624 48.0468L17.291 47.4278C14.8421 46.3225 13.3721 45.4764 11.7504 44.2385C6.74896 40.4211 3.27486 34.7 2.2031 28.5164C1.83809 26.4107 1.81293 25.7698 1.81207 18.5699L1.81121 11.5045L10.2 6.78417C14.8138 4.18793 18.6531 2.06271 18.7318 2.06125C18.8104 2.05988 22.7569 4.18158 27.5018 6.77626ZM26.049 20.3434C25.511 20.79 23.084 22.8119 20.6554 24.8365L16.24 28.5174L14.2355 26.0997C11.823 23.1902 11.7787 23.145 11.3361 23.145C10.8742 23.145 10.6377 23.2949 10.4766 23.6899C10.3595 23.9773 10.3591 24.0683 10.4741 24.3413C10.6512 24.7618 15.4349 30.4801 15.7543 30.6532C15.9308 30.7488 16.0941 30.7631 16.3158 30.702C16.6435 30.612 28.0089 21.2055 28.1755 20.8865C28.4764 20.3106 28.0115 19.5315 27.367 19.5315C27.0827 19.5315 26.8663 19.6648 26.049 20.3434Z" fill="#E30D16"/>
</svg>
