<svg width="50" height="50" viewBox="0 0 50 50" fill="none" xmlns="http://www.w3.org/2000/svg">
<path fill-rule="evenodd" clip-rule="evenodd" d="M39.2537 0.133117C37.5065 0.517557 35.9837 1.63888 35.1813 3.13162L34.9163 3.62486L34.351 3.40622C32.6162 2.73551 30.5226 2.1909 28.5066 1.88607C26.8572 1.63669 23.1384 1.63669 21.4889 1.88607C17.7355 2.45372 14.1894 3.76888 11.1726 5.71223L10.0387 6.44266L9.33595 5.98715C6.94678 4.43876 3.79419 4.73983 1.74911 6.71163C0.529246 7.88767 -0.133578 9.63229 0.0225579 11.2559C0.132436 12.398 0.862113 14.0973 1.83872 15.4854L2.15228 15.931L1.72345 16.9965C0.628017 19.7181 0.125534 22.0723 0.0167351 24.9921C-0.367028 35.2901 6.0394 44.6716 15.9949 48.3902C20.288 49.9939 25.198 50.4188 29.7096 49.5774C37.9041 48.0491 44.8192 42.6444 48.0164 35.2692C50.8712 28.6837 50.6366 21.4196 47.3638 15.06C46.6634 13.6988 45.8178 12.3686 44.9973 11.3372L44.5389 10.7611L45.0629 9.94034C46.4871 7.70936 46.8681 5.76799 46.235 3.97001C45.2617 1.20661 42.149 -0.504038 39.2537 0.133117ZM42.2966 2.04656C43.254 2.47956 43.9009 3.08764 44.3554 3.98189C45.2239 5.69077 44.8903 7.19559 43.0602 9.82675C42.1983 11.0658 40.7017 12.8513 40.5251 12.8513C40.3485 12.8513 38.8519 11.0658 37.99 9.82675C37.1119 8.56422 36.5275 7.42153 36.3194 6.55959C35.9242 4.92345 36.8615 3.0098 38.4619 2.18537C39.3113 1.74789 39.776 1.64889 40.7676 1.69453C41.4148 1.72434 41.7595 1.80364 42.2966 2.04656ZM28.8257 3.62152C30.3998 3.88476 32.0921 4.33851 33.4316 4.85655L34.4328 5.2438L34.5011 5.98329C34.7063 8.20124 36.0344 10.5165 38.9339 13.7104C40.0035 14.8889 40.2768 15.0705 40.7914 14.9457C41.0171 14.891 41.9377 13.9528 43.2391 12.4515L43.4953 12.156L44.1517 13.0768C48.9306 19.78 49.605 28.3945 45.9212 35.6738C44.9374 37.6178 43.5883 39.5204 42.0419 41.145L41.3971 41.8224L41.3925 39.9003L41.3877 37.9781L39.2312 35.8848L37.0746 33.7915V31.7176V29.6438L35.3493 27.9652L33.6241 26.2868V24.9952V23.7037L34.4867 22.8494L35.3493 21.9953V19.1454V16.2954L32.9474 13.9742L30.5457 11.6529H28.3931H26.2406L24.7565 10.2213L23.2725 8.78984V6.11366C23.2725 4.07433 23.3045 3.4231 23.4073 3.37715C23.7213 3.23688 27.5606 3.40997 28.8257 3.62152ZM39.6625 3.45207C39.1333 3.61329 38.2306 4.5166 38.0683 5.04746C37.7696 6.02456 37.9802 6.80355 38.7423 7.54002C39.8459 8.60663 41.3688 8.58391 42.3904 7.48562C43.3931 6.40775 43.3617 5.11228 42.3079 4.09392C41.5492 3.36068 40.666 3.14642 39.6625 3.45207ZM21.5472 6.56938V9.51026L23.5183 11.4153L25.4895 13.3203H27.6417H29.794L31.709 15.169L33.6241 17.0176V19.1479V21.2782L32.7614 22.1325L31.8988 22.9866V24.9982V27.0099L33.6241 28.6885L35.3493 30.3669V32.4414V34.5159L37.5059 36.6092L39.6625 38.7025V41.0082V43.3138L38.9346 43.8351C36.8859 45.3029 34.6062 46.4488 32.2665 47.1869C30.8413 47.6365 28.7317 48.0816 27.5048 48.1914L26.723 48.2613V46.8186V45.3758L28.017 44.1109L29.3109 42.8459V41.1949V39.544L30.1735 38.6897L31.0362 37.8356V35.824V33.8123L29.329 32.1378L27.622 30.4632L27.8825 29.8486C28.4956 28.4022 28.5812 26.9507 28.1284 25.6791C28.0078 25.3406 27.9091 25.0475 27.9091 25.0278C27.9091 25.0082 28.1128 24.9921 28.3618 24.9921C28.7923 24.9921 28.8688 24.9394 29.9253 23.9185L31.0362 22.8448V20.0057V17.1666L30.7715 16.9109L30.5068 16.6551H27.5857H24.6645L24.3998 16.9109C24.1504 17.1519 24.1351 17.2338 24.1351 18.3305V19.4942L24.9978 20.3484L25.8604 21.2026V21.9449V22.6873L25.4021 22.4341C24.4596 21.9132 23.6267 21.7123 22.4099 21.7124C20.706 21.7125 19.3637 22.2299 18.2035 23.3339C16.3904 25.0592 15.9243 27.4564 16.9368 29.8486L17.197 30.4632L15.9216 31.723L14.6462 32.9829V34.5835V36.184L15.757 37.2577L16.868 38.3312H18.3449H19.822V39.7508V41.1704L20.6846 42.0245L21.5472 42.8788V45.4869V48.095L20.7938 47.9574C15.8211 47.0486 11.0299 44.4813 7.80219 40.9959L7.06302 40.1976L8.69803 38.6055L10.333 37.0135V35.7755V34.5377L11.627 33.2728L12.9209 32.0078V30.4076V28.8074L10.7644 26.7141L8.60778 24.6209V23.9728V23.3247H9.65588H10.704L12.6751 21.4197L14.6462 19.5147V17.8543V16.194L16.3715 14.5156L18.0967 12.837V10.816V8.79494L16.5561 7.30596C15.2893 6.08177 14.9586 5.81551 14.696 5.80905C14.434 5.80259 14.5412 5.7262 15.2932 5.38407C16.9455 4.63228 20.258 3.66019 21.2507 3.6358L21.5472 3.62851V6.56938ZM41.123 5.23911C41.658 5.756 41.2789 6.65067 40.5251 6.65067C40.0818 6.65067 39.6625 6.24539 39.6625 5.81697C39.6625 5.38855 40.0818 4.98327 40.5251 4.98327C40.7352 4.98327 40.9562 5.07779 41.123 5.23911ZM7.79141 7.04876C8.74882 7.48176 9.39569 8.08984 9.85018 8.98409C10.7186 10.693 10.3851 12.1978 8.55494 14.8289C7.69307 16.068 6.19651 17.8535 6.01989 17.8535C5.84326 17.8535 4.34671 16.068 3.48483 14.8289C2.60668 13.5664 2.02224 12.4237 1.81413 11.5618C1.41894 9.92565 2.3563 8.01199 3.95669 7.18757C4.80606 6.75009 5.2708 6.65108 6.2624 6.69673C6.90958 6.72653 7.25431 6.80584 7.79141 7.04876ZM15.3182 8.49846L16.3715 9.51255V10.8132V12.1139L14.6462 13.7923L12.9209 15.4709V17.1299V18.7887L11.4397 20.223L9.95855 21.6573H8.6852C7.47698 21.6573 7.39826 21.6704 7.14724 21.9131C6.88931 22.1623 6.88252 22.2098 6.88252 23.757V25.3452L9.0391 27.4385L11.1957 29.5318V30.4092V31.2867L9.90173 32.5516L8.60778 33.8166V35.0595V36.3023L7.31567 37.5479C6.50706 38.3273 5.98679 38.7556 5.92522 38.6926C5.6069 38.3667 4.61542 36.7483 4.07595 35.6738C3.03519 33.6014 2.24103 31.0988 1.90967 28.8479C1.69628 27.3982 1.72226 23.978 1.95798 22.5114C2.21784 20.894 3.04306 17.9548 3.31791 17.6677C3.36094 17.6228 3.86709 18.103 4.44268 18.7348C5.97449 20.4163 6.07833 20.412 7.71733 18.5989C9.73265 16.3695 11.0929 14.3337 11.6969 12.6429C11.9434 11.9528 11.9952 11.6296 11.9975 10.7671C12.0003 9.69826 11.8529 9.07006 11.3902 8.17988C11.0594 7.54356 11.1838 7.48437 12.8514 7.48437H14.2649L15.3182 8.49846ZM5.15726 8.45427C4.62803 8.61549 3.7254 9.5188 3.56312 10.0497C3.26443 11.0268 3.47502 11.8057 4.23705 12.5422C5.34067 13.6088 6.86354 13.5861 7.88522 12.4878C8.88792 11.4099 8.85643 10.1145 7.80273 9.09612C7.04394 8.36288 6.16082 8.14862 5.15726 8.45427ZM6.6178 10.2413C6.78472 10.4025 6.88252 10.6162 6.88252 10.8192C6.88252 11.0222 6.78472 11.2358 6.6178 11.397C6.45099 11.5583 6.22994 11.6529 6.01989 11.6529C5.80984 11.6529 5.58879 11.5583 5.42198 11.397C5.25506 11.2358 5.15726 11.0222 5.15726 10.8192C5.15726 10.6162 5.25506 10.4025 5.42198 10.2413C5.58879 10.08 5.80984 9.98547 6.01989 9.98547C6.22994 9.98547 6.45099 10.08 6.6178 10.2413ZM29.3109 20.2213V22.1202L28.6942 22.7224C28.3017 23.1058 27.9882 23.3247 27.8316 23.3247C27.5876 23.3247 27.5857 23.3135 27.5857 21.9051V20.4855L26.723 19.6314C26.1784 19.0921 25.8604 18.6934 25.8604 18.5499C25.8604 18.3256 25.8843 18.3225 27.5857 18.3225H29.3109V20.2213ZM24.1814 23.7227C25.1388 24.1558 25.7857 24.7638 26.2402 25.6581C27.1086 27.367 26.7751 28.8718 24.9449 31.5029C24.083 32.742 22.5865 34.5275 22.4099 34.5275C22.2332 34.5275 20.7367 32.742 19.8748 31.5029C18.9967 30.2404 18.4122 29.0977 18.2041 28.2358C17.8089 26.5996 18.7463 24.686 20.3467 23.8616C21.196 23.4241 21.6608 23.3251 22.6524 23.3707C23.2996 23.4005 23.6443 23.4798 24.1814 23.7227ZM21.5472 25.1283C21.018 25.2895 20.1154 26.1928 19.9531 26.7237C19.6544 27.7007 19.865 28.4797 20.627 29.2162C21.7307 30.2828 23.2535 30.2601 24.2752 29.1618C25.2779 28.0839 25.2464 26.7885 24.1927 25.7701C23.4339 25.0369 22.5508 24.8226 21.5472 25.1283ZM23.0078 26.9153C23.5427 27.4322 23.1637 28.3269 22.4099 28.3269C21.9666 28.3269 21.5472 27.9216 21.5472 27.4932C21.5472 27.0647 21.9666 26.6595 22.4099 26.6595C22.6199 26.6595 22.841 26.754 23.0078 26.9153ZM18.4331 32.4636C18.8174 33.0646 20.2042 34.7525 21.0933 35.7014C21.9079 36.571 22.1949 36.7386 22.6711 36.6231C23.0747 36.5251 25.4115 33.896 26.5256 32.2864L26.7056 32.0264L28.0082 33.2753L29.3109 34.5243V35.8214V37.1185L28.4483 37.9728L27.5857 38.8269V40.4758V42.1248L26.2917 43.3897L24.9978 44.6547V46.4951V48.3356H24.3057C23.1767 48.3356 23.2725 48.6275 23.2725 45.1854V42.1617L22.4099 41.3076L21.5472 40.4533V38.8144C21.5472 37.2133 21.5411 37.1696 21.2825 36.9197C21.0238 36.6696 20.9795 36.6638 19.3113 36.6638H17.6047L16.9881 36.0616L16.3715 35.4594V34.5789V33.6984L17.2046 32.8884C17.6628 32.4429 18.0713 32.0785 18.1124 32.0785C18.1534 32.0785 18.2977 32.2518 18.4331 32.4636Z" fill="#01133C"/>
</svg>
