<svg width="52" height="50" viewBox="0 0 52 50" fill="none" xmlns="http://www.w3.org/2000/svg">
<path fill-rule="evenodd" clip-rule="evenodd" d="M25.0777 0.134684C25.7799 0.326991 26.1743 0.57353 26.7088 1.15401C28.0972 2.66194 27.871 5.01876 26.2209 6.23772C25.96 6.43054 25.575 6.64146 25.3654 6.70658L24.9843 6.82512V8.11795V9.41088L25.7211 9.58966C28.0813 10.1623 30.9378 11.5625 33.0641 13.189C33.8412 13.7836 35.5323 15.4125 36.1948 16.2047L36.7053 16.8152L40.5935 16.8661L44.4817 16.9169L44.7423 17.1622C45.255 17.6446 45.1405 18.5108 44.5271 18.7907C44.3703 18.8622 43.2132 18.9011 41.2408 18.9011C39.5665 18.9011 38.1966 18.9179 38.1966 18.9385C38.1966 18.9592 38.4417 19.4513 38.7412 20.0323C39.0409 20.6133 39.4374 21.4894 39.6226 21.979L39.9593 22.8693H45.6784H51.3975L51.6607 23.0982C52.008 23.4003 52.1073 23.9907 51.8713 24.3512C51.5132 24.8985 51.449 24.9043 45.7596 24.9043H40.5105L40.5719 25.1332C40.6435 25.4005 40.9145 27.3377 40.9988 28.1857L41.057 28.7708H43.3923C45.9306 28.7708 46.1763 28.8161 46.4091 29.3275C46.5626 29.6649 46.5626 29.9116 46.4091 30.249C46.1757 30.7618 45.9339 30.8058 43.3487 30.8058H40.97L40.902 31.6213C40.8372 32.3989 40.4743 34.4204 40.3689 34.5912C40.3414 34.6358 41.8094 34.6722 43.6312 34.6722C47.2244 34.6722 47.4648 34.7041 47.806 35.2253C48.042 35.5858 47.9427 36.1762 47.5954 36.4783C47.3326 36.7069 47.3276 36.7072 43.5214 36.7072H39.7105L39.5979 37.0305C39.3926 37.6202 38.4273 39.5154 37.8932 40.3776C35.917 43.5677 32.9448 46.2351 29.507 47.9042C24.5172 50.3267 19.1621 50.6528 13.7538 48.8632C12.8703 48.5709 10.3921 47.3876 9.60515 46.8823C8.7805 46.3528 8.63445 45.6199 9.25004 45.1013C9.66074 44.7552 10.0919 44.7736 10.7058 45.1634C11.6639 45.7718 13.4022 46.5853 14.5893 46.981C20.0723 48.8084 26.0641 48.0022 30.8282 44.7961C38.4321 39.6788 41.1305 29.793 37.1886 21.4957C34.6748 16.2046 29.9764 12.5513 24.0717 11.2964C22.9095 11.0494 22.6009 11.026 20.5124 11.026C18.4223 11.026 18.1159 11.0493 16.9493 11.2972C15.0841 11.6935 13.9417 12.093 12.2293 12.948C10.5189 13.8019 9.32352 14.6206 7.99335 15.8487C1.61191 21.7405 0.180502 31.433 4.59219 38.8784C5.15819 39.8334 5.22872 40.0742 5.06133 40.4788C4.85288 40.9825 4.12224 41.2383 3.63593 40.9779C3.37636 40.8388 2.84705 39.9972 2.17983 38.663C-1.29836 31.7072 -0.572803 23.4151 4.06045 17.1713C4.84323 16.1164 6.57323 14.3148 7.60501 13.4802C9.78423 11.7171 12.506 10.3267 15.1515 9.62517L16.0406 9.38931L16.0388 8.11653L16.0371 6.84374L15.4732 6.59934C14.7447 6.28351 14.0637 5.61481 13.7242 4.88201C13.3423 4.05743 13.3404 2.91865 13.7196 2.10018C14.0911 1.29839 14.6293 0.745079 15.4139 0.358228L16.0865 0.0265243L20.3067 0.00515691C23.7701 -0.012344 24.6257 0.0108549 25.0777 0.134684ZM16.5497 2.07657C16.1145 2.16367 15.5592 2.73082 15.4764 3.17262C15.3891 3.63843 15.5686 4.14819 15.9479 4.51215L16.2569 4.80875L20.4254 4.83744C24.4753 4.86543 24.6035 4.86024 24.9307 4.65786C25.5799 4.25615 25.7833 3.34183 25.3634 2.71251C24.8991 2.01674 24.8605 2.01095 20.6522 2.01084C18.5769 2.01074 16.7309 2.04035 16.5497 2.07657ZM18.0732 7.93755V8.98048H20.5124H22.9516V7.93755V6.89462H20.5124H18.0732V7.93755ZM22.4434 13.7803C24.5427 14.1174 26.0931 14.6078 27.7284 15.4521C31.9844 17.6492 34.9433 21.562 35.9808 26.3646C36.3079 27.8787 36.3047 30.9973 35.9746 32.5355C35.052 36.8332 32.6024 40.415 28.9988 42.7355C23.8481 46.0522 17.1767 46.0522 12.0261 42.7355C8.42244 40.415 5.97288 36.8332 5.05026 32.5355C4.72015 30.9973 4.7169 27.8787 5.04406 26.3646C6.44375 19.8851 11.4644 15.0029 17.8525 13.9096C18.9306 13.7251 21.6266 13.6492 22.4434 13.7803ZM18.3273 15.8979C12.3946 16.8726 7.85462 21.4935 6.92945 27.4989C6.7396 28.7317 6.79255 30.9888 7.0382 32.1285C7.63651 34.9048 8.86953 37.1759 10.8508 39.1512C12.8594 41.1538 15.0509 42.3456 17.7954 42.928C19.1735 43.2204 21.6607 43.2469 22.9791 42.9831C24.8846 42.602 26.7641 41.816 28.3382 40.7418C28.7574 40.4557 29.5836 39.74 30.1741 39.1512C32.1553 37.1759 33.3883 34.9048 33.9866 32.1285C34.2323 30.9888 34.2852 28.7317 34.0954 27.4989C33.1769 21.5369 28.634 16.889 22.7564 15.8976C21.684 15.7167 19.4291 15.7169 18.3273 15.8979ZM21.0094 17.7204C21.3841 17.9282 21.5212 18.2786 21.5252 19.038C21.5292 19.8112 21.3523 20.2343 20.9482 20.4187C20.6218 20.5675 20.3542 20.5575 20.019 20.3841C19.6254 20.1803 19.4961 19.8231 19.4961 18.9393C19.4961 18.2282 19.5174 18.1518 19.7932 17.8757C20.1232 17.5453 20.5873 17.486 21.0094 17.7204ZM13.7538 21.3875C13.9215 21.4638 15.1973 22.6712 16.5891 24.0704L19.1193 26.6145L19.5237 26.4716C20.0213 26.2959 21.0507 26.2987 21.5288 26.4769L21.8845 26.6097L23.1636 25.3499C24.3392 24.1922 24.4735 24.0903 24.8219 24.0903C25.307 24.0903 25.5536 24.2256 25.7455 24.597C26.0636 25.213 25.9895 25.3548 24.6314 26.729L23.3639 28.0114L23.5134 28.5091C23.8358 29.5814 23.5883 30.7049 22.843 31.5527C21.6178 32.9463 19.4071 32.9463 18.1819 31.5527C17.4361 30.7044 17.189 29.5814 17.5119 28.5072L17.662 28.0079L15.0219 25.3579C12.4354 22.7617 12.3818 22.6994 12.3818 22.2937C12.3818 21.9819 12.448 21.8132 12.6497 21.6113C12.797 21.4637 12.9763 21.343 13.048 21.343C13.1196 21.343 13.2391 21.3218 13.3135 21.2958C13.388 21.27 13.5861 21.3112 13.7538 21.3875ZM19.74 28.7097C19.3339 29.1163 19.285 29.5564 19.5902 30.0576C20.1646 31.0006 21.6288 30.5261 21.63 29.3965C21.6306 28.8748 21.0776 28.3638 20.5124 28.3638C20.1625 28.3638 20.0233 28.4261 19.74 28.7097ZM32.0483 28.7111C32.5169 29.1803 32.4838 29.8468 31.9727 30.2287C31.6791 30.4482 30.8784 30.5612 30.3371 30.4596C29.4848 30.2994 29.1603 29.3565 29.7532 28.7629C30.0357 28.4802 30.0936 28.4655 30.9267 28.4655C31.7175 28.4655 31.8268 28.4894 32.0483 28.7111ZM11.2716 28.7629C11.4913 28.9828 11.5687 29.157 11.5687 29.431C11.5687 30.2397 11.1107 30.5407 9.96788 30.4829C9.26325 30.4473 9.18927 30.4214 8.91567 30.1149C8.59939 29.7605 8.54969 29.4465 8.74279 29.0223C8.92705 28.6173 9.32413 28.4655 10.1994 28.4655C10.9206 28.4655 10.9952 28.4862 11.2716 28.7629ZM51.3759 34.8215C52.3837 35.2578 52.1027 36.7072 51.0104 36.7072C50.0367 36.7072 49.6111 35.4494 50.4133 34.9426C50.7915 34.7037 51.0333 34.6733 51.3759 34.8215ZM20.7885 38.4079C20.9123 38.4312 21.1295 38.5881 21.2712 38.7567C21.4993 39.028 21.5288 39.155 21.5288 39.8677C21.5288 40.61 21.5062 40.6975 21.2368 40.9994C20.8957 41.3816 20.405 41.4389 19.9621 41.1484C19.6114 40.9183 19.4961 40.5999 19.4961 39.8615C19.4961 39.533 19.5398 39.1491 19.5931 39.0085C19.7487 38.5991 20.3087 38.3175 20.7885 38.4079ZM7.40957 42.6009C7.79892 42.9907 7.81163 43.4857 7.44351 43.9236C7.22683 44.1814 7.10528 44.2367 6.75475 44.2367C6.24983 44.2367 5.95194 44.0523 5.77815 43.6322C5.36745 42.6396 6.64295 41.8334 7.40957 42.6009Z" fill="#01133C"/>
</svg>
