<svg width="50" height="42" viewBox="0 0 50 42" fill="none" xmlns="http://www.w3.org/2000/svg">
<path fill-rule="evenodd" clip-rule="evenodd" d="M23.3884 0.0229557C20.1723 0.341504 18.171 0.779255 15.8764 1.66592C13.9722 2.40182 11.3395 3.82918 10.5701 4.54305C10.0302 5.04392 9.98551 5.49754 10.4328 5.93789C10.8438 6.34255 11.236 6.31542 11.9998 5.82927C12.3369 5.61482 12.6241 5.45252 12.6382 5.46849C12.6752 5.51043 14.7856 9.1126 14.9225 9.36765C15.0302 9.56805 14.9764 9.62578 14.0826 10.2711C12.8952 11.1283 11.3857 12.6116 10.4471 13.8437C10.054 14.3597 9.7158 14.7817 9.69548 14.7817C9.64222 14.7817 5.71724 12.554 5.61678 12.4668C5.52981 12.3913 5.83753 11.9078 6.64764 10.8469C7.02338 10.3548 7.11778 10.1553 7.11778 9.85331C7.11778 9.07998 6.22832 8.63838 5.61981 9.10962C5.05957 9.54342 3.49573 11.898 2.61301 13.6367C0.804581 17.1988 -0.151038 21.5379 0.0194862 25.4128C0.179847 29.0574 1.00853 32.2801 2.61976 35.5253C3.56922 37.4377 4.10639 38.0698 5.24944 38.62C5.97805 38.9706 6.01822 38.9783 7.12286 38.9783C8.23053 38.9783 8.26562 38.9715 8.99374 38.6172C10.7173 37.7787 11.6763 36.0284 11.4162 34.1965C11.337 33.6388 11.1738 33.2075 10.6229 32.0994C9.76163 30.3669 9.23247 28.829 8.96452 27.2796C8.68983 25.6913 8.73937 22.8686 9.0682 21.372C9.76984 18.1785 11.2347 15.5425 13.5879 13.239C16.6432 10.2482 20.6593 8.62434 25.0008 8.62434C29.3423 8.62434 33.3584 10.2482 36.4137 13.239C39.6106 16.3684 41.2183 20.165 41.2325 24.6189C41.2364 25.8615 41.106 27.3395 40.9816 27.462C40.9624 27.4808 38.6892 26.6549 35.9299 25.6265L30.913 23.7566L30.8034 23.2859C30.4134 21.6097 29.2482 20.1478 27.7051 19.399C25.943 18.544 24.1515 18.5223 22.414 19.335C19.4106 20.7399 18.1869 24.3209 19.6961 27.2889C20.1505 28.1827 21.2597 29.3143 22.1187 29.7604C24.4302 30.961 27.1753 30.6155 29.0738 28.885L29.753 28.2659L35.0236 29.1199C37.9224 29.5895 40.3038 29.9757 40.3156 29.9782C40.3626 29.9881 40.1837 30.3889 39.4484 31.9198C38.8055 33.2585 38.6642 33.6421 38.5839 34.2653C38.3495 36.0863 39.3625 37.8602 41.0995 38.6703C41.7236 38.9613 41.8221 38.9783 42.8838 38.9783C43.9826 38.9783 44.0242 38.9703 44.7522 38.62C45.8952 38.0698 46.4324 37.4377 47.3819 35.5253C51.714 26.8003 50.616 16.8096 44.489 9.20159C40.4852 4.22989 34.6115 0.982738 28.1279 0.156686C27.2605 0.0461421 24.0646 -0.0440058 23.3884 0.0229557ZM24.0236 4.27703V6.66446L22.6966 6.83321C21.0605 7.04131 19.3469 7.49609 17.8613 8.11674L16.7317 8.58855L15.529 6.53323C14.8675 5.40278 14.3424 4.46368 14.3622 4.44636C14.4699 4.35169 15.3571 3.95079 16.3014 3.56999C18.5601 2.65928 21.0063 2.11916 23.8526 1.90269C24.0112 1.89066 24.0236 2.06259 24.0236 4.27703ZM28.3233 2.14658C29.6989 2.32736 31.6896 2.81706 32.9791 3.29185C33.8595 3.61598 35.5331 4.33784 35.6336 4.43674C35.6566 4.45935 35.1341 5.40278 34.4727 6.53323L33.2699 8.58855L32.1403 8.11674C30.6547 7.49609 28.9411 7.04131 27.305 6.83321L25.978 6.66446V4.27857V1.89268L26.5888 1.94579C26.9248 1.97494 27.7053 2.06528 28.3233 2.14658ZM37.9906 5.82946C40.1776 7.29165 42.5747 9.65089 44.0575 11.8006C44.283 12.1276 44.43 12.427 44.3842 12.4659C44.2801 12.5541 40.358 14.7817 40.3066 14.7817C40.286 14.7817 39.9476 14.3597 39.5546 13.8437C38.6151 12.6105 37.1063 11.1281 35.9156 10.2686L34.9572 9.57671L35.1871 9.17273C35.8693 7.97368 37.3632 5.44944 37.3904 5.44944C37.4079 5.44944 37.6779 5.6205 37.9906 5.82946ZM7.35231 7.21969C6.98674 7.5796 6.9324 7.88969 7.15931 8.32176C7.30394 8.59721 7.67567 8.81676 7.99727 8.81676C8.49243 8.81676 8.97449 8.34678 8.97449 7.864C8.97449 7.54718 8.77963 7.22305 8.48686 7.05276C8.0561 6.80223 7.72717 6.85063 7.35231 7.21969ZM17.3879 11.4399C16.9684 11.6521 16.7587 12.0262 16.835 12.4264C16.9872 13.2251 17.891 13.5223 18.461 12.9612C18.8741 12.5545 18.8573 12.0813 18.4144 11.6453C18.0617 11.2981 17.7797 11.2417 17.3879 11.4399ZM31.8792 11.4088C31.5468 11.547 31.255 11.9863 31.255 12.3488C31.255 13.3397 32.7723 13.5824 33.1044 12.6444C33.2639 12.1937 33.2339 12.0212 32.9407 11.7043C32.6522 11.3927 32.2128 11.2703 31.8792 11.4088ZM6.62741 15.2754C7.76059 15.9193 8.68132 16.503 8.68132 16.5774C8.68132 16.6516 8.57168 16.9254 8.43761 17.1859C7.69961 18.6197 7.04537 21.0001 6.87064 22.8873L6.80165 23.633H4.36409H1.92652L1.97792 23.2241C2.00616 22.9992 2.05561 22.5554 2.08776 22.2379C2.2575 20.5609 2.72979 18.5166 3.3213 16.8983C3.59023 16.1626 4.49445 14.1115 4.55083 14.1092C4.56334 14.1086 5.49785 14.6335 6.62741 15.2754ZM45.934 15.0944C47.0057 17.4234 47.6686 19.8151 47.9139 22.2379C47.946 22.5554 47.9955 22.9992 48.0237 23.2241L48.0751 23.633H45.6375H43.2L43.131 22.8873C42.9557 20.9939 42.3021 18.6199 41.5584 17.1749C41.4212 16.9084 41.3225 16.6284 41.3391 16.5525C41.363 16.4432 45.2285 14.1383 45.428 14.1145C45.4568 14.111 45.6844 14.5521 45.934 15.0944ZM25.8022 20.7587C26.5566 20.9165 27.3321 21.3386 27.842 21.8691C28.2746 22.3191 28.6735 22.8633 28.5709 22.8633C28.5432 22.8633 27.8716 22.6226 27.0784 22.3285C26.2851 22.0343 25.4345 21.7693 25.1881 21.7397C24.2124 21.6223 23.0775 22.2362 22.5111 23.1877C21.6909 24.5656 22.1956 26.4151 23.5839 27.1192C23.8116 27.2346 24.6434 27.431 25.577 27.5898C26.4581 27.7395 27.1956 27.8784 27.2158 27.8982C27.236 27.918 26.9767 28.0592 26.6397 28.2119C26.0883 28.4618 25.9241 28.4897 25.0008 28.4906C24.0543 28.4914 23.925 28.4683 23.3335 28.1924C21.556 27.3632 20.6462 25.4696 21.136 23.6186C21.5019 22.2354 22.642 21.1358 24.0725 20.7862C24.7037 20.632 25.1612 20.6247 25.8022 20.7587ZM10.196 23.7239C9.84362 23.8659 9.63411 24.1867 9.62307 24.6012C9.61417 24.9344 9.66362 25.0431 9.9302 25.2777C10.3649 25.66 10.8401 25.6594 11.2296 25.2759C11.7303 24.7829 11.5582 23.9596 10.9079 23.7364C10.5607 23.6172 10.4649 23.6155 10.196 23.7239ZM29.3467 25.2313C33.2938 26.6976 34.2998 27.0936 33.7469 26.9634C33.6394 26.9381 31.5946 26.6089 29.2028 26.2318C26.8111 25.8546 24.7279 25.4979 24.5735 25.4388C24.1829 25.2896 23.976 24.7879 24.1236 24.3478C24.2403 23.9994 24.6328 23.633 24.8891 23.633C24.9744 23.633 26.9804 24.3522 29.3467 25.2313ZM39.0727 23.7385C38.4386 23.9862 38.281 24.7925 38.772 25.2759C39.4362 25.9299 40.5654 25.3288 40.3807 24.4197C40.2693 23.871 39.611 23.5282 39.0727 23.7385ZM6.86439 26.3028C7.05221 28.4001 7.77242 30.7909 8.85703 32.9171C9.43124 34.0429 9.49485 34.2256 9.49427 34.7451C9.49339 35.4111 9.3213 35.8676 8.88781 36.3535C7.97157 37.3809 6.22382 37.3576 5.30935 36.3057C4.90263 35.8379 3.8532 33.7631 3.35218 32.4361C2.6824 30.6621 2.18324 28.378 1.99072 26.2066L1.93307 25.5571H4.36536H6.79764L6.86439 26.3028ZM48.0109 26.2066C47.8185 28.3774 47.3194 30.6609 46.6496 32.4361C46.16 33.7338 45.0856 35.8533 44.6826 36.3169C43.7778 37.3577 42.0253 37.3757 41.1138 36.3535C40.6804 35.8676 40.5082 35.4111 40.5074 34.7451C40.5066 34.237 40.569 34.0467 41.0279 33.1577C41.3147 32.6021 41.7138 31.7362 41.9148 31.2335C42.2043 30.5093 42.3176 30.3239 42.4598 30.341C43.7999 30.5016 43.9058 30.4953 44.2195 30.2354C44.5999 29.9202 44.6864 29.5983 44.5053 29.1714C44.3604 28.8301 43.9871 28.5874 43.2408 28.3497C42.8911 28.2383 42.8684 28.2088 42.9164 27.9277C42.9448 27.7616 43.0222 27.1603 43.0885 26.5914L43.2089 25.5571H45.6387H48.0686L48.0109 26.2066ZM18.8651 34.1322C18.6682 34.1881 18.4697 34.343 18.3524 34.5323C18.1811 34.8089 18.161 35.023 18.161 36.5731C18.161 38.5793 18.2399 38.8361 18.9126 39.02C19.4227 39.1595 30.579 39.1595 31.0891 39.02C31.7618 38.8361 31.8406 38.5793 31.8406 36.5731C31.8406 34.5668 31.7618 34.3101 31.0891 34.1262C30.6133 33.9961 19.3247 34.0016 18.8651 34.1322ZM29.8869 36.5731V37.1022H25.0008H20.1147V36.5731V36.0439H25.0008H29.8869V36.5731ZM24.1261 40.1142C23.654 40.275 23.3777 40.7578 23.4958 41.2157C23.5455 41.4088 23.7038 41.6452 23.8595 41.7591C24.1149 41.946 24.2841 41.9631 26.1686 41.9917C28.5213 42.0275 28.9196 41.9628 29.2069 41.4989C29.4469 41.1113 29.4471 40.8863 29.2075 40.4995C29.0799 40.2934 28.8957 40.1594 28.646 40.0912C28.1287 39.9497 24.5556 39.9679 24.1261 40.1142ZM20.9449 40.317C20.6368 40.6203 20.5518 40.9807 20.7035 41.3411C20.8675 41.731 21.1556 41.9127 21.6098 41.9127C22.1267 41.9127 22.5578 41.4971 22.5578 40.9987C22.5578 40.2119 21.504 39.7665 20.9449 40.317Z" fill="#E30D16"/>
</svg>
