<svg width="26" height="26" viewBox="0 0 26 26" fill="none" xmlns="http://www.w3.org/2000/svg">
<path fill-rule="evenodd" clip-rule="evenodd" d="M5.98465 0.0363142C5.75617 0.106202 5.43276 0.442121 5.36743 0.677452C5.33779 0.784088 5.31344 1.12626 5.31329 1.43778L5.31298 2.0042L4.33427 2.02718C3.45776 2.04776 3.30778 2.06448 2.89799 2.18718C1.5944 2.57748 0.551228 3.61853 0.141951 4.93756L0 5.395V14.0103V22.6255L0.141951 23.083C0.550364 24.3993 1.58123 25.4299 2.89799 25.8382L3.35557 25.9801H7.7571H12.1586L12.3648 25.8438C12.6821 25.6338 12.8122 25.3853 12.8122 24.989C12.8122 24.5926 12.6821 24.3442 12.3648 24.1342L12.1587 23.9979L7.88426 23.9724L3.60978 23.947L3.31733 23.829C2.75228 23.6009 2.32444 23.1535 2.12504 22.5823C2.03856 22.3345 2.03368 21.8766 2.03368 14.0103C2.03368 6.14389 2.03856 5.68599 2.12504 5.43826C2.32515 4.86492 2.75706 4.41454 3.31733 4.19497C3.56819 4.09667 3.73022 4.07735 4.45629 4.05921L5.30276 4.03801L5.32061 4.71651C5.33657 5.32466 5.35091 5.41513 5.45905 5.58901C5.5254 5.69575 5.67248 5.84442 5.78581 5.91939C5.9575 6.03299 6.04836 6.05576 6.32982 6.05576C6.61128 6.05576 6.70213 6.03299 6.87383 5.91939C6.98715 5.84442 7.13424 5.69575 7.20059 5.58901C7.30858 5.41533 7.32307 5.32445 7.33893 4.72154L7.35662 4.04808H9.63454H11.9125L11.9302 4.72535C11.9467 5.36003 11.9564 5.41559 12.0843 5.60858C12.2951 5.92686 12.5425 6.05576 12.943 6.05576C13.2204 6.05576 13.3122 6.03258 13.4833 5.91939C13.5966 5.84442 13.7437 5.69575 13.81 5.58901C13.918 5.41533 13.9325 5.32445 13.9484 4.72154L13.9661 4.04808H16.2694H18.5728L18.5905 4.72535C18.607 5.36003 18.6167 5.41559 18.7446 5.60858C18.9553 5.92686 19.2028 6.05576 19.6033 6.05576C19.8807 6.05576 19.9725 6.03258 20.1436 5.91939C20.2569 5.84442 20.404 5.69575 20.4703 5.58901C20.5785 5.41513 20.5928 5.32466 20.6088 4.71661L20.6266 4.03821L21.4985 4.0589C22.2393 4.07644 22.4116 4.0959 22.6439 4.18846C23.2076 4.41307 23.606 4.80591 23.8284 5.35678L23.9465 5.64914L23.972 8.92751L23.9974 12.2059L24.118 12.3999C24.1844 12.5066 24.3315 12.6553 24.4448 12.7303C24.6159 12.8435 24.7076 12.8666 24.9851 12.8666C25.3856 12.8666 25.6331 12.7377 25.8438 12.4193L25.9802 12.2133V8.80415V5.395L25.8383 4.93756C25.429 3.61863 24.3861 2.57779 23.0822 2.18708C22.6701 2.06352 22.5255 2.04766 21.6254 2.02723L20.6261 2.00456L20.6086 1.33247C20.5921 0.703374 20.5823 0.64726 20.4546 0.454472C20.2445 0.137258 19.996 0.00729167 19.5996 0.00729167C19.2031 0.00729167 18.9546 0.137258 18.7446 0.454472C18.6167 0.647464 18.607 0.703018 18.5905 1.3377L18.5728 2.01498H16.2694H13.9661L13.9484 1.34151C13.9325 0.738597 13.918 0.647718 13.81 0.47404C13.7437 0.367303 13.5966 0.218632 13.4833 0.143662C13.3122 0.030469 13.2204 0.00729167 12.943 0.00729167C12.5425 0.00729167 12.2951 0.13619 12.0843 0.454472C11.9564 0.647464 11.9467 0.703018 11.9302 1.3377L11.9125 2.01498H9.63454H7.35662L7.33893 1.3377C7.32236 0.703018 7.31264 0.647464 7.18483 0.454472C7.10984 0.341228 6.96722 0.198352 6.86798 0.137054C6.66029 0.00871484 6.23378 -0.039927 5.98465 0.0363142ZM5.98465 9.69353C5.74239 9.76764 5.43124 10.1004 5.36128 10.3602C5.23957 10.812 5.42041 11.287 5.80528 11.5262C6.09366 11.7054 6.59018 11.6981 6.87383 11.5104C7.19118 11.3004 7.32124 11.052 7.32124 10.6556C7.32124 10.2644 7.19144 10.011 6.88832 9.81049C6.67026 9.66619 6.25122 9.61195 5.98465 9.69353ZM10.4079 9.69353C10.1656 9.76764 9.85449 10.1004 9.78453 10.3602C9.66281 10.812 9.84366 11.287 10.2285 11.5262C10.5169 11.7054 11.0134 11.6981 11.2971 11.5104C11.6144 11.3004 11.7445 11.052 11.7445 10.6556C11.7445 10.2644 11.6147 10.011 11.3116 9.81049C11.0935 9.66619 10.6745 9.61195 10.4079 9.69353ZM14.8311 9.69353C14.5889 9.76764 14.2777 10.1004 14.2078 10.3602C14.0861 10.812 14.2669 11.287 14.6518 11.5262C14.9402 11.7054 15.4367 11.6981 15.7203 11.5104C16.0377 11.3004 16.1677 11.052 16.1677 10.6556C16.1677 10.2644 16.0379 10.011 15.7348 9.81049C15.5168 9.66619 15.0977 9.61195 14.8311 9.69353ZM19.2544 9.69353C19.0121 9.76764 18.701 10.1004 18.631 10.3602C18.5093 10.812 18.6902 11.287 19.075 11.5262C19.3634 11.7054 19.8599 11.6981 20.1436 11.5104C20.4609 11.3004 20.591 11.052 20.591 10.6556C20.591 10.2644 20.4612 10.011 20.1581 9.81049C19.94 9.66619 19.521 9.61195 19.2544 9.69353ZM18.964 13.7792C17.6227 13.9901 16.3978 14.6162 15.4693 15.5659C14.9855 16.0607 14.6496 16.5406 14.3344 17.187C13.4986 18.9013 13.4986 20.8095 14.3344 22.5239C14.9554 23.7975 15.9123 24.7548 17.1819 25.3724C18.9023 26.2092 20.8053 26.2092 22.5256 25.3724C23.7953 24.7548 24.7522 23.7975 25.3731 22.5239C26.209 20.8095 26.209 18.9013 25.3731 17.187C24.7522 15.9133 23.7953 14.9561 22.5256 14.3385C21.3986 13.7902 20.1459 13.5935 18.964 13.7792ZM5.98465 14.1155C5.74239 14.1896 5.43124 14.5224 5.36128 14.7822C5.23957 15.234 5.42041 15.709 5.80528 15.9482C6.09366 16.1274 6.59018 16.1201 6.87383 15.9324C7.19118 15.7224 7.32124 15.474 7.32124 15.0776C7.32124 14.6864 7.19144 14.433 6.88832 14.2325C6.67026 14.0882 6.25122 14.0339 5.98465 14.1155ZM10.4079 14.1155C10.1656 14.1896 9.85449 14.5224 9.78453 14.7822C9.66281 15.234 9.84366 15.709 10.2285 15.9482C10.5169 16.1274 11.0134 16.1201 11.2971 15.9324C11.6144 15.7224 11.7445 15.474 11.7445 15.0776C11.7445 14.6864 11.6147 14.433 11.3116 14.2325C11.0935 14.0882 10.6745 14.0339 10.4079 14.1155ZM20.5738 15.8113C22.3144 16.1515 23.5587 17.3955 23.899 19.1356C24.379 21.5899 22.3864 23.9724 19.8538 23.9724C18.6644 23.9724 17.4283 23.3868 16.6866 22.4718C15.4262 20.9168 15.4262 18.794 16.6866 17.239C17.5998 16.1124 19.1679 15.5365 20.5738 15.8113ZM19.5086 16.8094C19.2701 16.8824 18.9551 17.2164 18.8873 17.4684C18.8505 17.6049 18.8362 18.1211 18.8464 18.9363L18.8624 20.1935L18.9988 20.3994C19.0738 20.5127 19.2225 20.6596 19.3292 20.7259C19.5174 20.8429 19.5557 20.8466 20.591 20.8466C21.6262 20.8466 21.6646 20.8429 21.8527 20.7259C21.9595 20.6596 22.1082 20.5126 22.1832 20.3993C22.3709 20.1157 22.3782 19.6193 22.199 19.331C21.9993 19.01 21.7441 18.8764 21.2793 18.8494L20.8801 18.8264L20.8626 18.1337C20.8469 17.5102 20.8331 17.4217 20.7245 17.2471C20.4848 16.8615 19.958 16.6719 19.5086 16.8094ZM5.98465 18.5375C5.74239 18.6116 5.43124 18.9444 5.36128 19.2042C5.23957 19.656 5.42041 20.131 5.80528 20.3701C6.09366 20.5494 6.59018 20.542 6.87383 20.3544C7.19118 20.1444 7.32124 19.896 7.32124 19.4996C7.32124 19.1084 7.19144 18.855 6.88832 18.6545C6.67026 18.5102 6.25122 18.4559 5.98465 18.5375ZM10.4079 18.5375C10.1656 18.6116 9.85449 18.9444 9.78453 19.2042C9.66281 19.656 9.84366 20.131 10.2285 20.3701C10.5169 20.5494 11.0134 20.542 11.2971 20.3544C11.6144 20.1444 11.7445 19.896 11.7445 19.4996C11.7445 19.1084 11.6147 18.855 11.3116 18.6545C11.0935 18.5102 10.6745 18.4559 10.4079 18.5375Z" fill="#FFC000"/>
</svg>
