<svg width="30" height="26" viewBox="0 0 30 26" fill="none" xmlns="http://www.w3.org/2000/svg">
<path fill-rule="evenodd" clip-rule="evenodd" d="M14.033 0.0142107C12.1034 0.211407 10.9026 0.482396 9.52582 1.03128C8.3833 1.48684 6.80373 2.37045 6.34205 2.81237C6.0181 3.12242 5.99131 3.40324 6.25967 3.67584C6.50628 3.92634 6.74158 3.90954 7.19991 3.6086C7.40213 3.47584 7.57446 3.37537 7.5829 3.38525C7.60512 3.41122 8.87136 5.64113 8.9535 5.79902C9.01812 5.92308 8.98587 5.95882 8.44955 6.35827C7.7371 6.88893 6.8314 7.8072 6.26823 8.5699C6.03241 8.88931 5.82948 9.15059 5.81729 9.15059C5.78533 9.15059 3.43034 7.77152 3.37007 7.71756C3.31788 7.67081 3.50252 7.37147 3.98859 6.71473C4.21403 6.41009 4.27067 6.28662 4.27067 6.09967C4.27067 5.62094 3.73699 5.34757 3.37188 5.63929C3.03574 5.90783 2.09744 7.36546 1.56781 8.44179C0.482748 10.6469 -0.0906227 13.333 0.0116917 15.7317C0.107908 17.9879 0.605115 19.9829 1.57185 21.9918C2.14153 23.1757 2.46384 23.567 3.14967 23.9076C3.58683 24.1247 3.61093 24.1294 4.27372 24.1294C4.93832 24.1294 4.95937 24.1252 5.39624 23.9059C6.43035 23.3868 7.00578 22.3033 6.84969 21.1693C6.8022 20.824 6.70429 20.557 6.37371 19.871C5.85698 18.7986 5.53948 17.8465 5.37871 16.8874C5.2139 15.9041 5.24362 14.1567 5.44092 13.2303C5.86191 11.2533 6.74081 9.62157 8.15275 8.19558C9.98591 6.3441 12.3956 5.33888 15.0005 5.33888C17.6054 5.33888 20.0151 6.3441 21.8482 8.19558C23.7663 10.1328 24.731 12.4831 24.7395 15.2403C24.7418 16.0095 24.6636 16.9245 24.589 17.0003C24.5775 17.0119 23.2135 16.5006 21.5579 15.864L18.5478 14.7065L18.4821 14.4151C18.248 13.3774 17.5489 12.4724 16.623 12.0089C15.5658 11.4796 14.4909 11.4662 13.4484 11.9693C11.6463 12.839 10.9121 15.0558 11.8177 16.8931C12.0903 17.4464 12.7558 18.1469 13.2712 18.4231C14.6581 19.1663 16.3052 18.9525 17.4443 17.8812L17.8518 17.4979L21.0142 18.0266C22.7535 18.3173 24.1823 18.5564 24.1894 18.558C24.2176 18.5641 24.1102 18.8121 23.6691 19.7599C23.2833 20.5886 23.1985 20.826 23.1503 21.2119C23.0097 22.3391 23.6175 23.4372 24.6597 23.9388C25.0342 24.1189 25.0933 24.1294 25.7303 24.1294C26.3896 24.1294 26.4145 24.1245 26.8513 23.9076C27.5371 23.567 27.8594 23.1757 28.4291 21.9918C31.0284 16.5906 30.3696 10.406 26.6934 5.69622C24.2911 2.6185 20.7669 0.608361 16.8767 0.0969963C16.3563 0.0285641 14.4388 -0.0272417 14.033 0.0142107ZM14.4142 2.64769V4.12562L13.618 4.23008C12.6363 4.35891 11.6082 4.64044 10.7168 5.02465L10.039 5.31672L9.31738 4.04438C8.92049 3.34458 8.60546 2.76323 8.6173 2.75251C8.68191 2.6939 9.21424 2.44573 9.78081 2.21C11.1361 1.64622 12.6038 1.31186 14.3116 1.17786C14.4067 1.17041 14.4142 1.27684 14.4142 2.64769ZM16.994 1.32883C17.8193 1.44074 19.0137 1.74389 19.7875 2.03781C20.3157 2.23846 21.3199 2.68533 21.3802 2.74655C21.3939 2.76055 21.0805 3.34458 20.6836 4.04438L19.9619 5.31672L19.2842 5.02465C18.3928 4.64044 17.3647 4.35891 16.383 4.23008L15.5868 4.12562V2.64864V1.17166L15.9533 1.20454C16.1549 1.22258 16.6232 1.27851 16.994 1.32883ZM22.7944 3.60872C24.1066 4.51388 25.5448 5.97436 26.4345 7.30512C26.5698 7.50756 26.658 7.69291 26.6305 7.71697C26.5681 7.77158 24.2148 9.15059 24.184 9.15059C24.1716 9.15059 23.9686 8.88931 23.7327 8.5699C23.169 7.80648 22.2638 6.88881 21.5494 6.35672L20.9743 5.92844L21.1123 5.67836C21.5216 4.93608 22.4179 3.37346 22.4343 3.37346C22.4448 3.37346 22.6068 3.47936 22.7944 3.60872ZM4.41139 4.46933C4.19204 4.69214 4.15944 4.88409 4.29559 5.15157C4.38236 5.32208 4.6054 5.45799 4.79836 5.45799C5.09546 5.45799 5.38469 5.16705 5.38469 4.86819C5.38469 4.67206 5.26778 4.47141 5.09211 4.366C4.83366 4.21091 4.6363 4.24086 4.41139 4.46933ZM10.4328 7.08184C10.181 7.21323 10.0552 7.44479 10.101 7.69255C10.1923 8.18694 10.7346 8.37097 11.0766 8.02357C11.3244 7.77182 11.3144 7.47891 11.0486 7.209C10.837 6.99405 10.6678 6.95915 10.4328 7.08184ZM19.1275 7.0626C18.9281 7.14813 18.753 7.42007 18.753 7.64449C18.753 8.25793 19.6634 8.40814 19.8626 7.82751C19.9584 7.54848 19.9404 7.44169 19.7644 7.24551C19.5913 7.0526 19.3277 6.97684 19.1275 7.0626ZM3.97645 9.45618C4.65636 9.8548 5.20879 10.2161 5.20879 10.2622C5.20879 10.3082 5.14301 10.4776 5.06256 10.6389C4.61977 11.5265 4.22722 13.0001 4.12239 14.1684L4.08099 14.6299H2.61845H1.15591L1.18675 14.3768C1.2037 14.2376 1.23337 13.9629 1.25266 13.7663C1.3545 12.7282 1.63788 11.4626 1.99278 10.4609C2.15414 10.0054 2.69667 8.73571 2.7305 8.73428C2.738 8.73392 3.29871 9.05881 3.97645 9.45618ZM27.5604 9.34415C28.2034 10.7859 28.6012 12.2665 28.7483 13.7663C28.7676 13.9629 28.7973 14.2376 28.8142 14.3768L28.8451 14.6299H27.3825H25.92L25.8786 14.1684C25.7734 12.9963 25.3813 11.5266 24.935 10.6321C24.8528 10.4671 24.7935 10.2937 24.8034 10.2468C24.8178 10.1791 27.1371 8.75226 27.2568 8.73755C27.2741 8.73541 27.4107 9.00842 27.5604 9.34415ZM15.4813 12.8506C15.934 12.9483 16.3992 13.2096 16.7052 13.538C16.9648 13.8166 17.2041 14.1535 17.1425 14.1535C17.1259 14.1535 16.7229 14.0044 16.247 13.8224C15.771 13.6403 15.2607 13.4762 15.1129 13.4579C14.5274 13.3852 13.8465 13.7653 13.5066 14.3543C13.0145 15.2073 13.3174 16.3522 14.1503 16.7881C14.287 16.8595 14.7861 16.9811 15.3462 17.0794C15.8749 17.1721 16.3174 17.258 16.3295 17.2703C16.3416 17.2826 16.186 17.37 15.9838 17.4645C15.653 17.6192 15.5545 17.6365 15.0005 17.637C14.4326 17.6375 14.355 17.6233 14.0001 17.4524C12.9336 16.9391 12.3877 15.7669 12.6816 14.6211C12.9011 13.7648 13.5852 13.084 14.4435 12.8677C14.8222 12.7722 15.0967 12.7677 15.4813 12.8506ZM6.1176 14.6862C5.90617 14.7741 5.78047 14.9727 5.77384 15.2293C5.7685 15.4356 5.79817 15.5029 5.95812 15.6481C6.21892 15.8848 6.50405 15.8844 6.73776 15.647C7.0382 15.3418 6.93495 14.8321 6.54475 14.694C6.33642 14.6202 6.27896 14.6191 6.1176 14.6862ZM17.608 15.6194C19.9763 16.5271 20.5799 16.7722 20.2481 16.6916C20.1836 16.676 18.9567 16.4722 17.5217 16.2387C16.0867 16.0052 14.8367 15.7844 14.7441 15.7478C14.5097 15.6555 14.3856 15.3449 14.4741 15.0724C14.5442 14.8568 14.7797 14.6299 14.9335 14.6299C14.9847 14.6299 16.1882 15.0752 17.608 15.6194ZM23.4436 14.6953C23.0632 14.8486 22.9686 15.3477 23.2632 15.647C23.6617 16.0518 24.3392 15.6798 24.2284 15.1169C24.1616 14.7773 23.7666 14.5651 23.4436 14.6953ZM4.11863 16.2827C4.23133 17.581 4.66345 19.061 5.31422 20.3773C5.65874 21.0742 5.69691 21.1873 5.69656 21.5089C5.69603 21.9211 5.59278 22.2037 5.33269 22.5046C4.78294 23.1406 3.73429 23.1261 3.18561 22.475C2.94158 22.1854 2.31192 20.901 2.01131 20.0795C1.60944 18.9813 1.30994 17.5673 1.19443 16.2231L1.15984 15.8211H2.61921H4.07859L4.11863 16.2827ZM28.8065 16.2231C28.6911 17.567 28.3917 18.9806 27.9898 20.0795C27.696 20.8828 27.0514 22.1949 26.8096 22.4819C26.2667 23.1262 25.2152 23.1373 24.6683 22.5046C24.4083 22.2037 24.3049 21.9211 24.3044 21.5089C24.3039 21.1944 24.3414 21.0765 24.6168 20.5262C24.7888 20.1822 25.0283 19.6462 25.1489 19.335C25.3226 18.8867 25.3905 18.7719 25.4759 18.7825C26.2799 18.882 26.3435 18.878 26.5317 18.7172C26.76 18.522 26.8119 18.3228 26.7032 18.0585C26.6163 17.8472 26.3923 17.697 25.9445 17.5498C25.7346 17.4809 25.721 17.4626 25.7498 17.2886C25.7669 17.1857 25.8133 16.8135 25.8531 16.4613L25.9253 15.8211H27.3832H28.8411L28.8065 16.2231ZM11.319 21.1294C11.2009 21.164 11.0818 21.2599 11.0115 21.3771C10.9087 21.5484 10.8966 21.6809 10.8966 22.6405C10.8966 23.8824 10.9439 24.0414 11.3475 24.1552C11.6536 24.2416 18.3474 24.2416 18.6534 24.1552C19.0571 24.0414 19.1044 23.8824 19.1044 22.6405C19.1044 21.3985 19.0571 21.2396 18.6534 21.1257C18.368 21.0452 11.5948 21.0486 11.319 21.1294ZM17.9321 22.6405V22.968H15.0005H12.0688V22.6405V22.3129H15.0005H17.9321V22.6405ZM14.4757 24.8326C14.1924 24.9322 14.0266 25.231 14.0975 25.5145C14.1273 25.634 14.2223 25.7804 14.3157 25.8509C14.4689 25.9666 14.5705 25.9772 15.7012 25.9948C17.1128 26.017 17.3518 25.977 17.5242 25.6898C17.6682 25.4498 17.6683 25.3106 17.5245 25.0711C17.4479 24.9435 17.3374 24.8606 17.1876 24.8183C16.8772 24.7308 14.7334 24.742 14.4757 24.8326ZM12.5669 24.9581C12.3821 25.1459 12.3311 25.369 12.4221 25.5921C12.5205 25.8335 12.6933 25.9459 12.9659 25.9459C13.276 25.9459 13.5347 25.6887 13.5347 25.3801C13.5347 24.8931 12.9024 24.6173 12.5669 24.9581Z" fill="#FFC000"/>
</svg>
