<svg width="134" height="138" viewBox="0 0 134 138" fill="none" xmlns="http://www.w3.org/2000/svg">
<path d="M111.258 114.574C110.791 115.091 110.318 115.608 109.834 116.119C110.428 115.613 111.011 115.107 111.258 114.574Z" fill="#FFC000"/>
<path d="M127.742 69.281C127.632 70.4411 127.522 71.6067 127.417 72.7668C128.088 71.2328 128.121 70.2267 127.742 69.281Z" fill="#FFC000"/>
<path d="M98.3986 122.293C96.7712 123.761 95.0723 125.147 93.2909 126.422C95.1547 125.394 96.9141 124.207 98.3986 122.293Z" fill="#FFC000"/>
<path d="M56.5913 127.104C58.1802 127.797 59.8297 127.852 61.5066 127.648C61.4461 127.637 61.3911 127.626 61.3306 127.615C59.6757 127.511 58.0703 127.231 56.5913 127.104Z" fill="#FFC000"/>
<path d="M93.2853 126.422C90.9706 127.698 88.502 128.742 86.2313 130.65C88.7329 129.424 91.0751 128.006 93.2853 126.422Z" fill="#FFC000"/>
<path d="M131.761 78.0229L131.942 76.0876C131.871 76.445 131.799 76.8133 131.733 77.1817C131.766 77.4676 131.788 77.748 131.761 78.0229Z" fill="#FFC000"/>
<path d="M132.288 72.3489C132.123 74.1412 132.112 74.2017 131.937 76.0931C132.107 74.834 132.217 73.5859 132.288 72.3489Z" fill="#FFC000"/>
<path d="M65.3112 126.884C64.7559 127.016 64.2006 127.148 63.6508 127.269C64.1676 127.412 64.7174 127.384 65.3112 126.884Z" fill="#FFC000"/>
<path d="M116.916 116.762C116.421 117.356 115.921 117.944 115.404 118.549C116.091 117.972 116.773 117.389 116.916 116.762Z" fill="#FFC000"/>
<path d="M132.305 72.2169C132.3 72.2169 132.3 72.2224 132.305 72.2169C132.3 72.2606 132.294 72.3042 132.294 72.3425C132.294 72.2988 132.3 72.266 132.305 72.2169Z" fill="#FFC000"/>
<path d="M126.285 84.9009L126.153 86.3194C126.213 85.6762 126.252 85.2583 126.285 84.9009Z" fill="#FFC000"/>
<path d="M60.429 127.434C60.7259 127.522 61.0282 127.555 61.3306 127.61C61.4406 127.615 61.5561 127.621 61.666 127.626C62.3258 127.538 62.9856 127.417 63.6508 127.269C62.3588 126.906 61.3086 125.416 60.429 127.434Z" fill="#FFC000"/>
<path d="M55.6449 130.452C55.492 130.463 55.5685 130.458 55.6449 130.452V130.452Z" fill="#FFC000"/>
<path d="M40.24 12.2277C40.8503 11.8758 41.4661 11.5294 42.0873 11.194C41.3616 11.4799 40.6413 11.7768 40.24 12.2277Z" fill="#FFC000"/>
<path d="M9.93468 52.2315C10.4185 51.0879 10.8968 49.9388 11.3807 48.7952C10.2481 50.1093 9.88519 51.1264 9.93468 52.2315Z" fill="#FFC000"/>
<path d="M54.8813 9.20376C56.8936 8.31857 58.9444 7.54884 61.0447 6.91656C58.9499 7.26294 56.8991 7.80725 54.8813 9.20376Z" fill="#FFC000"/>
<path d="M61.0447 6.91657C63.6453 6.48772 66.3118 6.35577 69.0718 5.26166C66.3118 5.56955 63.6453 6.13585 61.0447 6.91657Z" fill="#FFC000"/>
<path d="M8.99461 41.7907L8.19189 43.6985C8.37883 43.3577 8.56027 43.0058 8.7472 42.6594C8.80768 42.357 8.87915 42.0656 8.99461 41.7907Z" fill="#FFC000"/>
<path d="M6.64697 47.3878C6.8559 46.8929 7.00435 46.5356 7.1363 46.2277C6.97686 46.618 6.79542 46.9974 6.64697 47.3878Z" fill="#FFC000"/>
<path d="M7.13074 46.2277C7.47162 45.381 7.807 44.5343 8.19186 43.6985C7.63106 45.0346 7.46062 45.4469 7.13074 46.2277Z" fill="#FFC000"/>
<path d="M35.6162 7.85671C36.276 7.43885 36.9412 7.0265 37.6285 6.60315C36.7873 6.93853 35.9571 7.27391 35.6162 7.85671Z" fill="#FFC000"/>
<path d="M6.59192 47.5133C6.59192 47.5133 6.59192 47.5078 6.59192 47.5133C6.61375 47.4696 6.63012 47.426 6.6465 47.3878C6.62467 47.4314 6.61375 47.4642 6.59192 47.5133Z" fill="#FFC000"/>
<path d="M16.4005 36.8424L16.9888 35.4459C16.7194 36.0782 16.549 36.4906 16.4005 36.8424Z" fill="#FFC000"/>
<path d="M19.562 21.7118C20.8375 21.206 22.9213 18.7924 24.1968 18.2865C16.538 24.3674 12.9753 34.6542 8.74729 42.6649C8.40092 44.4683 8.78028 46.6455 6.59756 47.5142C-1.95192 70.0342 4.80519 95.5947 22.4484 111.154C12.7224 103.886 6.35564 93.6979 3.82104 81.987C4.44781 88.0953 6.83397 95.0944 8.7363 100.697L6.98242 99.8007C13.5031 114.695 26.2586 122.354 39.8168 128.099C36.7819 127.714 35.028 126.818 31.9986 126.433C33.5435 127.533 35.116 128.374 36.7104 128.99C34.885 128.874 33.0762 128.797 31.2893 128.808C38.1564 130.045 45.4688 130.881 52.7482 130.76C52.6328 130.716 52.5008 130.689 52.3909 130.639C56.2285 130.975 59.3734 128.319 64.0797 129.705C60.363 130.386 56.5584 130.7 52.7482 130.76C55.5797 131.799 60.1761 131.277 63.0296 130.59C63.5079 130.634 63.9863 130.672 64.9484 130.755C53.0781 133.625 42.4394 133.68 31.1079 130.744C45.2214 134.895 60.7479 134.295 75.7686 128.77C67.5545 133.911 57.9604 133.075 48.1903 134.18C59.8077 135.983 71.7825 133.949 82.9875 129.034C85.2912 127.307 87.6664 125.515 90.6078 125.18C88.1172 126.609 85.5716 127.896 82.9875 129.034C81.8164 129.914 80.6564 130.766 79.4578 131.409C88.1942 127.335 97.0571 121.529 105.117 114.733C101.967 117.389 98.8219 120.039 96.5402 123.745C97.5904 122.86 97.5904 122.86 98.6405 121.974C98.558 122.084 98.4755 122.183 98.3876 122.293C102.901 118.214 106.86 113.458 110.544 108.378C110.362 110.313 109.312 111.198 108.262 112.083C109.312 111.198 110.362 110.313 111.412 109.428C110.362 110.313 109.131 113.133 108.081 114.019C111.05 113.298 110.544 108.378 113.507 107.663L112.457 108.548C113.507 107.663 114.557 106.778 115.607 105.893C112.457 108.548 111.05 113.298 107.899 115.954C108.949 115.069 109.999 114.184 111.05 113.298C111.423 113.749 111.429 114.173 111.248 114.574C119.038 105.942 124.311 96.172 126.323 84.3841C126.367 83.9003 126.411 83.4165 126.505 82.4488C125.092 87.2046 123.684 91.9605 120.352 96.5458C121.765 91.79 122.304 85.9841 124.586 82.2784C124.404 84.2137 124.404 84.2137 124.223 86.149C125.817 79.4579 127.406 72.7668 126.032 66.7959C126.824 67.7525 127.417 68.4948 127.731 69.281C127.802 68.5058 127.874 67.736 127.945 66.9608C131.893 86.8143 122.409 105.502 109.455 119.984C110.505 119.099 110.505 119.099 111.555 118.214C109.092 123.855 103.16 125.29 101.747 130.045C106.992 125.625 113.111 122.255 116.619 115.729C116.916 116.091 116.977 116.432 116.9 116.757C121.622 111.132 125.444 105.992 127.835 99.1409C126.785 100.026 125.553 102.847 124.503 103.732C129.88 95.7871 130.139 85.6047 131.711 77.1817C131.497 75.4938 130.485 73.7344 132.278 72.2225C133.553 49.6859 119.522 29.8215 98.2556 22.4376C109.582 25.3735 118.631 32.0097 124.531 41.3014C122.106 36.2157 117.763 30.9596 114.288 26.7535L116.207 26.9185C115.635 26.3412 115.047 25.8024 114.453 25.2746C116.383 26.2092 118.313 27.0999 120.248 27.8641C117.174 25.9123 113.958 24.0265 110.632 22.3001C107.162 19.9195 103.424 18.1766 99.5037 16.9175C97.0406 15.3231 93.3899 14.3884 90.8992 14.075C90.4594 13.8496 90.0195 13.6297 89.1454 13.1788C101.274 14.7293 111.325 18.6879 121.051 25.9563C109.092 16.3952 94.2585 11.1501 78.2977 11.1226C87.7214 8.97832 96.4908 13.4427 106.063 16.0048C95.699 9.78654 83.7463 7.3399 71.5736 8.13162C68.841 9.02231 66.015 9.95698 63.1341 9.18725C65.9491 8.66494 68.7696 8.31306 71.5736 8.13162C72.9646 7.67528 74.3336 7.24094 75.6751 7.03751C66.114 7.90071 55.8601 10.4793 46.0461 14.3719C49.8782 12.8545 53.7104 11.3315 57.0697 8.41203C55.7941 8.91785 55.7942 8.91785 54.5131 9.42367C54.6286 9.3412 54.7385 9.26972 54.854 9.19275C49.268 11.6559 43.9898 15.0152 38.8546 18.8088C39.6574 16.901 40.9329 16.3952 42.214 15.8894C40.9384 16.3952 39.6574 16.901 38.3818 17.4068C39.6574 16.901 41.7411 14.4874 43.0167 13.9816C39.9872 13.5967 38.8601 18.8088 35.8252 18.424L37.1008 17.9182C35.8252 18.424 34.5442 18.9298 33.2686 19.4356C37.1008 17.9182 39.9817 13.5967 43.8139 12.0737C42.5383 12.5796 41.2573 13.0854 39.9817 13.5912C39.7783 12.9864 39.9103 12.5576 40.2127 12.2112C30.0523 18.0831 21.8986 26.0663 16.1587 37.3373C15.9607 37.8156 15.7573 38.2885 15.356 39.2451C18.2369 34.9236 21.1179 30.6022 25.7528 27.1769C22.8718 31.4984 20.4691 37.2163 17.1098 40.1358C17.9126 38.228 17.9126 38.228 18.7098 36.3202C15.0261 42.5495 11.3479 48.7732 10.6991 55.3874C10.2648 54.1119 9.94587 53.1332 9.90738 52.2095C9.5885 52.9738 9.26961 53.7325 8.94522 54.4967C11.6943 32.7464 26.7259 17.2529 43.6599 7.3619C42.3844 7.86772 42.3844 7.86772 41.1034 8.37354C45.2599 3.54625 51.3242 4.32147 54.2052 0C47.8165 2.5346 40.9494 3.6672 35.5173 9.00032C35.3524 8.51649 35.4074 8.14812 35.5888 7.84023C29.3265 11.8153 24.0484 15.62 19.562 21.7118ZM78.5561 15.8344C78.5286 15.8344 78.5011 15.8344 78.4736 15.8399C78.4901 15.8344 78.5066 15.8289 78.5231 15.8179C78.5341 15.8234 78.5451 15.8234 78.5561 15.8344ZM77.517 121.54C77.5555 121.491 77.5939 121.441 77.6324 121.392C77.7479 121.364 77.8523 121.337 77.9678 121.309C77.9678 121.331 77.9678 121.348 77.9623 121.37C77.8084 121.43 77.6599 121.485 77.517 121.54ZM87.4739 111.011C86.7757 111.764 86.0499 112.49 85.2967 113.172C85.962 112.325 86.6822 111.578 87.4739 111.011ZM68.0988 128.105C66.18 127.94 65.1298 128.825 63.211 128.654L64.2282 127.797C64.2007 127.797 64.1732 127.802 64.1457 127.808C58.4827 129.804 52.7372 129.985 47.0467 129.71C48.0859 129.474 49.1305 129.177 50.1916 128.759C46.6839 126.972 41.5707 129.001 38.8656 125.306C47.9594 126.466 55.7832 128.132 64.723 124.586C63.4474 125.092 63.9203 126.494 63.9203 126.494C66.4769 125.482 70.309 123.959 72.8656 122.948C72.4148 123.129 71.9309 123.376 71.4361 123.651C70.1606 124.08 68.852 124.542 67.406 125.119L68.885 125.246C68.3792 125.581 67.8679 125.922 67.3676 126.246C67.8184 126.059 68.2747 125.889 68.7311 125.73C67.7909 126.417 66.8287 126.879 65.8611 127.17C66.3504 126.89 66.8562 126.576 67.3731 126.246C66.6583 126.543 65.9656 126.912 65.2838 127.329C64.0742 127.615 62.8592 127.681 61.6661 127.626C61.6111 127.632 61.5616 127.637 61.5066 127.643C62.3808 127.797 63.266 127.857 64.1512 127.802C64.1897 127.791 64.2282 127.78 64.2667 127.764L64.2337 127.791C64.3656 127.78 64.4976 127.753 64.6295 127.742C64.558 127.797 64.4756 127.83 64.4041 127.885C64.5031 127.846 64.6185 127.775 64.7175 127.731C65.6137 127.637 66.5099 127.478 67.3896 127.241L67.2301 127.049C67.3731 127.11 67.505 127.132 67.6425 127.181C69.9736 126.532 72.2223 125.521 74.2126 124.729C72.2223 126.406 70.221 128.055 67.6425 127.181C67.56 127.203 67.472 127.219 67.3896 127.247L68.0988 128.105ZM91.6195 15.0097C91.0257 14.9107 90.4319 14.8063 89.8381 14.7183C89.7776 14.6688 89.7116 14.6303 89.6512 14.5808C90.3054 14.7073 90.9652 14.8612 91.6195 15.0097Z" fill="#FFC000"/>
<path d="M80.4584 129.05C79.8042 129.248 79.1499 129.441 78.4846 129.628C79.2434 129.501 79.9856 129.375 80.4584 129.05Z" fill="#FFC000"/>
<path d="M117.152 99.3333C116.476 100.257 115.8 101.175 115.118 102.099C116.454 101.148 116.993 100.312 117.152 99.3333Z" fill="#FFC000"/>
<path d="M65.7676 129.045C63.6619 129.457 61.5396 129.765 59.3954 129.936C61.4791 130.013 63.5629 129.903 65.7676 129.045Z" fill="#FFC000"/>
<path d="M28.2379 111.995C29.2221 113.381 30.5801 114.261 32.0921 114.931C32.0481 114.893 32.0041 114.854 31.9601 114.816C30.6241 113.892 29.4145 112.848 28.2379 111.995Z" fill="#FFC000"/>
<path d="M59.3955 129.936C56.8059 129.837 54.2108 129.468 51.3408 129.93C54.0624 130.155 56.7454 130.144 59.3955 129.936Z" fill="#FFC000"/>
<path d="M116.113 108.702L117.24 107.168C116.999 107.432 116.757 107.707 116.515 107.982C116.399 108.235 116.278 108.482 116.113 108.702Z" fill="#FFC000"/>
<path d="M119.423 104.199C118.379 105.623 118.34 105.667 117.24 107.163C118.016 106.195 118.736 105.205 119.423 104.199Z" fill="#FFC000"/>
<path d="M35.6767 116.212C35.1434 116.047 34.6101 115.877 34.0878 115.696C34.4451 116.075 34.918 116.333 35.6767 116.212Z" fill="#FFC000"/>
<path d="M84.1091 133.74C83.3944 133.988 82.6741 134.23 81.9374 134.482C82.8061 134.339 83.6693 134.197 84.1091 133.74Z" fill="#FFC000"/>
<path d="M119.5 104.1C119.494 104.1 119.494 104.1 119.5 104.1C119.472 104.133 119.451 104.166 119.423 104.204C119.451 104.166 119.472 104.138 119.5 104.1Z" fill="#FFC000"/>
<path d="M108.048 111.709L107.223 112.831C107.597 112.325 107.839 111.995 108.048 111.709Z" fill="#FFC000"/>
<path d="M31.2949 114.211C31.5038 114.436 31.7403 114.612 31.9657 114.816C32.0537 114.876 32.1471 114.937 32.2406 114.997C32.8399 115.256 33.4557 115.487 34.0879 115.701C33.1808 114.739 33.0543 112.958 31.2949 114.211Z" fill="#FFC000"/>
<path d="M25.7579 114.326C25.6214 114.261 25.6869 114.294 25.7579 114.326V114.326Z" fill="#FFC000"/>
<path d="M72.4532 7.29042C73.1405 7.30141 73.8333 7.3234 74.526 7.35089C73.7728 7.22444 73.0195 7.10898 72.4532 7.29042Z" fill="#FFC000"/>
<path d="M26.8304 25.5879C27.8146 24.8677 28.7933 24.1529 29.7774 23.4327C28.161 23.966 27.3473 24.6422 26.8304 25.5879Z" fill="#FFC000"/>
<path d="M86.2754 12.1342C88.4141 12.4036 90.5254 12.7939 92.6037 13.3218C90.6738 12.5575 88.6725 11.9802 86.2754 12.1342Z" fill="#FFC000"/>
<path d="M92.6038 13.3218C95.0009 14.2729 97.3101 15.51 100.18 15.9828C97.706 14.8502 95.1768 13.976 92.6038 13.3218Z" fill="#FFC000"/>
<path d="M31.3059 16.3512L29.673 17.5498C30.0029 17.3573 30.3327 17.1594 30.6626 16.956C30.8606 16.7361 31.075 16.5216 31.3059 16.3512Z" fill="#FFC000"/>
<path d="M26.5116 19.8644C26.9349 19.551 27.2428 19.3311 27.5067 19.1387C27.1769 19.3861 26.8305 19.6115 26.5116 19.8644Z" fill="#FFC000"/>
<path d="M27.5067 19.1387C28.2215 18.5999 28.9252 18.0556 29.6729 17.5497C28.5239 18.3909 28.172 18.6494 27.5067 19.1387Z" fill="#FFC000"/>
<path d="M70.7765 1.28652C71.5407 1.27002 72.3104 1.25353 73.0967 1.24803C72.2225 1.10508 71.3593 0.967631 70.7765 1.28652Z" fill="#FFC000"/>
<path d="M26.4015 19.9408C26.4069 19.9463 26.4069 19.9408 26.4015 19.9408C26.4397 19.9135 26.4779 19.8862 26.5106 19.8589C26.4724 19.8917 26.4452 19.9135 26.4015 19.9408Z" fill="#FFC000"/>
<path d="M40.0203 15.9333L41.2188 15.0591C40.68 15.4495 40.3227 15.7134 40.0203 15.9333Z" fill="#FFC000"/>
</svg>
