<svg width="221" height="36" viewBox="0 0 221 36" fill="none" xmlns="http://www.w3.org/2000/svg">
<path d="M61.0618 13.588V9.16H80.1058V13.588H61.0618ZM68.0818 34V9.16H73.0858V34H68.0818ZM79.5012 34L88.7172 9.16H91.3452L91.6332 14.02L84.7212 34H79.5012ZM85.1532 28.42V24.352H97.2492V28.42H85.1532ZM90.4092 14.02L90.5532 9.16H93.4692L102.685 34H97.3212L90.4092 14.02ZM103.027 34L111.775 20.284L113.503 18.088L118.795 9.16H124.411L116.059 22.264L114.331 24.46L108.679 34H103.027ZM103.387 9.16H109.219L115.375 19.168L124.771 34H118.939L112.495 23.524L103.387 9.16ZM126.674 31.12L129.158 27.052C130.214 27.964 131.426 28.696 132.794 29.248C134.186 29.776 135.59 30.04 137.006 30.04C137.894 30.04 138.638 29.932 139.238 29.716C139.862 29.476 140.33 29.164 140.642 28.78C140.978 28.396 141.146 27.976 141.146 27.52C141.146 27.088 141.002 26.668 140.714 26.26C140.426 25.828 139.91 25.408 139.166 25C138.446 24.568 137.402 24.124 136.034 23.668C134.042 23.02 132.446 22.3 131.246 21.508C130.046 20.692 129.182 19.816 128.654 18.88C128.126 17.92 127.862 16.912 127.862 15.856C127.862 14.56 128.21 13.372 128.906 12.292C129.626 11.212 130.658 10.36 132.002 9.736C133.37 9.088 135.014 8.764 136.934 8.764C138.494 8.764 140.054 9.028 141.614 9.556C143.198 10.084 144.554 10.768 145.682 11.608L143.306 15.532C142.346 14.788 141.29 14.188 140.138 13.732C138.986 13.276 137.786 13.048 136.538 13.048C135.338 13.048 134.426 13.288 133.802 13.768C133.178 14.248 132.866 14.8 132.866 15.424C132.866 15.832 133.01 16.228 133.298 16.612C133.61 16.996 134.114 17.38 134.81 17.764C135.53 18.124 136.514 18.508 137.762 18.916C139.826 19.588 141.482 20.344 142.73 21.184C143.978 22 144.878 22.9 145.43 23.884C146.006 24.868 146.294 25.948 146.294 27.124C146.294 28.42 145.934 29.62 145.214 30.724C144.494 31.828 143.402 32.716 141.938 33.388C140.474 34.06 138.662 34.396 136.502 34.396C135.35 34.396 134.186 34.264 133.01 34C131.858 33.712 130.742 33.328 129.662 32.848C128.606 32.368 127.61 31.792 126.674 31.12ZM151.256 34V9.16H156.26V34H151.256ZM153.632 34V29.572H168.428V34H153.632ZM153.632 23.56V19.348H166.52V23.56H153.632ZM153.632 13.588V9.16H168.248V13.588H153.632ZM172.14 21.58C172.14 19.54 172.452 17.728 173.076 16.144C173.724 14.56 174.6 13.228 175.704 12.148C176.808 11.044 178.08 10.204 179.52 9.628C180.96 9.052 182.484 8.764 184.092 8.764C185.628 8.764 187.044 9.004 188.34 9.484C189.66 9.94 190.908 10.624 192.084 11.536L189.168 15.388C188.424 14.812 187.62 14.356 186.756 14.02C185.892 13.66 184.968 13.48 183.984 13.48C182.736 13.48 181.596 13.78 180.564 14.38C179.556 14.98 178.752 15.892 178.152 17.116C177.552 18.316 177.252 19.804 177.252 21.58C177.252 23.356 177.552 24.856 178.152 26.08C178.752 27.28 179.568 28.18 180.6 28.78C181.632 29.38 182.772 29.68 184.02 29.68C185.052 29.68 186 29.5 186.864 29.14C187.752 28.756 188.568 28.228 189.312 27.556L192.3 31.336C191.124 32.344 189.876 33.112 188.556 33.64C187.236 34.144 185.772 34.396 184.164 34.396C182.532 34.396 180.984 34.108 179.52 33.532C178.08 32.956 176.808 32.128 175.704 31.048C174.6 29.944 173.724 28.6 173.076 27.016C172.452 25.432 172.14 23.62 172.14 21.58ZM194.851 21.58C194.851 19.54 195.151 17.728 195.751 16.144C196.351 14.56 197.179 13.216 198.235 12.112C199.291 11.008 200.515 10.18 201.907 9.628C203.299 9.052 204.775 8.764 206.335 8.764C207.919 8.764 209.407 9.052 210.799 9.628C212.191 10.18 213.415 11.008 214.471 12.112C215.527 13.216 216.343 14.56 216.919 16.144C217.519 17.728 217.819 19.54 217.819 21.58C217.819 23.62 217.519 25.432 216.919 27.016C216.343 28.6 215.527 29.944 214.471 31.048C213.415 32.152 212.191 32.992 210.799 33.568C209.407 34.12 207.919 34.396 206.335 34.396C204.775 34.396 203.299 34.12 201.907 33.568C200.515 32.992 199.291 32.152 198.235 31.048C197.179 29.944 196.351 28.6 195.751 27.016C195.151 25.432 194.851 23.62 194.851 21.58ZM199.963 21.58C199.963 22.972 200.119 24.184 200.431 25.216C200.767 26.248 201.223 27.112 201.799 27.808C202.375 28.504 203.047 29.032 203.815 29.392C204.583 29.728 205.423 29.896 206.335 29.896C207.247 29.896 208.087 29.728 208.855 29.392C209.623 29.032 210.295 28.504 210.871 27.808C211.447 27.112 211.891 26.248 212.203 25.216C212.539 24.184 212.707 22.972 212.707 21.58C212.707 20.188 212.539 18.976 212.203 17.944C211.891 16.912 211.447 16.048 210.871 15.352C210.295 14.656 209.623 14.14 208.855 13.804C208.087 13.444 207.247 13.264 206.335 13.264C205.423 13.264 204.583 13.444 203.815 13.804C203.047 14.14 202.375 14.656 201.799 15.352C201.223 16.048 200.767 16.912 200.431 17.944C200.119 18.976 199.963 20.188 199.963 21.58Z" fill="white"/>
<path d="M10.6138 11.6517L14.4821 5.99356C15.3176 4.78285 16.6951 4.05859 18.1683 4.05859H31.832C33.3036 4.05859 34.6811 4.78131 35.5181 5.99356L39.4174 11.6517H10.6138Z" fill="#1A1A1A"/>
<path d="M10.4977 35.6433H2.41971C1.08392 35.6433 0.00292969 34.5608 0.00292969 33.2266V29.3721L12.9161 30.9766V33.225C12.9145 34.5608 11.832 35.6433 10.4977 35.6433Z" fill="black"/>
<path d="M47.5817 35.6432H39.5037C38.1679 35.6432 37.0869 34.5606 37.0869 33.2264V30.9779L50 28.0176V33.2264C49.9985 34.5606 48.916 35.6432 47.5817 35.6432Z" fill="black"/>
<g opacity="0.1">
<path d="M13.9789 12.3612H13.7241L19.0812 3.64844H19.336L13.9789 12.3612Z" fill="white"/>
<path d="M16.2088 12.3612H15.6992L21.0563 3.64844H21.5659L16.2088 12.3612Z" fill="white"/>
<path d="M19.7327 12.3612H17.9336L23.2906 3.64844H25.0897L19.7327 12.3612Z" fill="white"/>
<path d="M21.9393 12.3612H21.5239L26.881 3.64844H27.2964L21.9393 12.3612Z" fill="white"/>
</g>
<path d="M49.5632 21.9626L49.0458 19.1289C48.5918 16.6411 46.958 14.5285 44.6663 13.4614L40.7825 11.6531H29.2144L28.7496 11.4462C28.3172 11.2531 27.8508 11.1543 27.3767 11.1543H22.625C22.1525 11.1543 21.6845 11.2547 21.2522 11.4462L20.7873 11.6531H9.21771L5.33389 13.4614C3.04221 14.5285 1.40837 16.6411 0.954354 19.1289L0.437029 21.9626C0.146708 23.5516 0 25.1639 0 26.7792V28.0177V29.372C0 32.0528 2.17278 34.2271 4.85517 34.2271H13.7841C14.7014 34.2271 15.5924 33.9229 16.3182 33.3624C17.044 32.8018 17.9351 32.4976 18.8524 32.4976H31.1447C32.062 32.4976 32.953 32.8018 33.6788 33.3624C34.4046 33.9229 35.2957 34.2271 36.213 34.2271H45.1419C47.8228 34.2271 49.9971 32.0544 49.9971 29.372V28.0177V26.7792C49.9986 25.1639 49.8535 23.5516 49.5632 21.9626Z" fill="url(#paint0_linear_1246_2874)"/>
<path d="M37.6757 31.6226H45.1221C46.4826 31.6226 47.5589 30.4721 47.4678 29.1147L47.3721 27.6708C47.2841 26.3582 46.1367 25.373 44.8256 25.4841L37.1197 26.1435C35.5029 26.2825 34.5084 27.9797 35.1786 29.4575L35.5338 30.242C35.9152 31.0821 36.7522 31.6226 37.6757 31.6226Z" fill="#333333"/>
<path d="M36.8046 30.9235H44.251C45.6115 30.9235 46.6878 29.773 46.5967 28.4156L46.501 26.9717C46.4686 26.4914 46.2941 26.0544 46.0223 25.6992C46.7712 26.0498 47.3133 26.7864 47.372 27.6728L47.4677 29.1167C47.5588 30.4741 46.4825 31.6246 45.122 31.6246H37.6755C36.9343 31.6246 36.2486 31.2755 35.8101 30.7026C36.1158 30.8447 36.454 30.9235 36.8046 30.9235Z" fill="#1A1A1A"/>
<path d="M12.3249 31.6226H4.87847C3.51797 31.6226 2.44162 30.4721 2.53273 29.1147L2.62847 27.6708C2.7165 26.3582 3.86388 25.373 5.17496 25.4841L12.8808 26.1435C14.4977 26.2825 15.4922 27.9797 14.822 29.4575L14.4668 30.242C14.0854 31.0821 13.2484 31.6226 12.3249 31.6226Z" fill="#333333"/>
<path d="M12.3244 31.6226H4.87798C3.51748 31.6226 2.44113 30.4721 2.53224 29.1147L2.62799 27.6708C2.71601 26.3582 3.86339 25.373 5.17447 25.4841L12.8804 26.1435C14.4972 26.2825 15.4917 27.9797 14.8215 29.4575L14.4663 30.242C14.0849 31.0821 13.2479 31.6226 12.3244 31.6226Z" fill="#333333"/>
<path d="M13.1954 30.9235H5.74895C4.38845 30.9235 3.3121 29.773 3.40321 28.4156L3.49895 26.9717C3.53138 26.4914 3.70588 26.0544 3.97767 25.6992C3.2287 26.0498 2.68667 26.7864 2.62799 27.6728L2.53224 29.1167C2.44113 30.4741 3.51748 31.6246 4.87798 31.6246H12.3244C13.0657 31.6246 13.7513 31.2755 14.1899 30.7026C13.8841 30.8447 13.5459 30.9235 13.1954 30.9235Z" fill="#1A1A1A"/>
<path d="M33.4597 27.7445C33.3007 27.1577 32.7679 26.75 32.1595 26.75H25.0003H17.8426C17.2342 26.75 16.7014 27.1577 16.5408 27.7445L16.235 28.8718C16.0018 29.7289 16.6473 30.5721 17.5368 30.5721H25.0003H32.4637C33.3516 30.5721 33.9971 29.7289 33.7655 28.8718L33.4597 27.7445Z" fill="#333333"/>
<path d="M33.4597 27.7445C33.3007 27.1577 32.7679 26.75 32.1595 26.75H25.0003H17.8426C17.2342 26.75 16.7014 27.1577 16.5408 27.7445L16.235 28.8718C16.0018 29.7289 16.6473 30.5721 17.5368 30.5721H25.0003H32.4637C33.3516 30.5721 33.9971 29.7289 33.7655 28.8718L33.4597 27.7445Z" fill="#333333"/>
<path d="M33.7655 28.8713L33.4598 27.744C33.4397 27.6698 33.4134 27.5972 33.381 27.5293L33.5092 28.0157C33.7346 28.8728 33.1077 29.716 32.246 29.716H25.0003H17.7546C16.8929 29.716 16.2659 28.8728 16.4914 28.0157L16.6195 27.5293C16.5871 27.5972 16.5609 27.6698 16.5408 27.744L16.235 28.8713C16.0018 29.7283 16.6473 30.5715 17.5353 30.5715H25.0003H32.4637C33.3516 30.573 33.9972 29.7283 33.7655 28.8713Z" fill="#1A1A1A"/>
<path d="M32.2814 20.1169L29.1048 19.9903C26.3699 19.8822 23.6304 19.8822 20.8955 19.9903L17.7189 20.1169C16.9298 20.1478 16.2504 20.608 16.0295 21.2627C15.7006 22.2325 16.4851 23.2178 17.6525 23.3012C22.5432 23.6486 27.4586 23.6486 32.3493 23.3012C33.5168 23.2178 34.3013 22.2325 33.9723 21.2627C33.75 20.608 33.0705 20.1478 32.2814 20.1169Z" fill="#333333"/>
<path d="M33.9719 21.2618C33.9117 21.0842 33.816 20.9206 33.694 20.7754C33.9441 21.7174 33.1982 22.6517 32.1018 22.732C27.3748 23.0794 22.6247 23.0794 17.8977 22.732C16.8012 22.6517 16.0538 21.7174 16.3055 20.7754C16.1835 20.9206 16.0893 21.0827 16.0276 21.2618C15.6986 22.2316 16.4831 23.2169 17.6506 23.3003C22.5413 23.6477 27.4567 23.6477 32.3473 23.3003C33.5148 23.2169 34.3008 22.2316 33.9719 21.2618Z" fill="#1A1A1A"/>
<path d="M30.3077 15.9742H19.6909C19.5056 15.9742 19.3759 15.7889 19.4408 15.616C19.6971 14.9179 20.3627 14.4531 21.107 14.4531H28.8916C29.636 14.4531 30.3016 14.9179 30.5579 15.616C30.6228 15.7889 30.4946 15.9742 30.3077 15.9742Z" fill="#333333"/>
<path d="M29.5479 15.9739H20.4522C20.2932 15.9739 20.1835 15.8581 20.2376 15.7484C20.4584 15.3099 21.0282 15.0195 21.666 15.0195H28.3342C28.9719 15.0195 29.5418 15.3099 29.7626 15.7484C29.8166 15.8581 29.707 15.9739 29.5479 15.9739Z" fill="#1A1A1A"/>
<g opacity="0.1">
<path d="M19.2089 11.6514L15.4702 17.9859L20.7871 11.6514H19.2089Z" fill="#0000FF"/>
<path d="M30.7906 11.6514L34.5293 17.9859L29.2124 11.6514H30.7906Z" fill="#0000FF"/>
</g>
<path d="M46.4083 19.2444L46.5844 20.628C46.7527 21.9407 45.7767 23.1236 44.4548 23.2085L38.2345 23.61C36.9111 23.6949 35.7915 22.6448 35.7915 21.3199C35.7915 20.3022 36.4617 19.4065 37.4361 19.1193L43.4789 17.3341C44.8378 16.9342 46.2292 17.8422 46.4083 19.2444Z" fill="white"/>
<path d="M46.5844 20.628L46.4083 19.2444C46.2292 17.8422 44.8378 16.9342 43.4819 17.3341C43.4819 17.3341 44.4564 18.6946 44.4564 23.2085C45.7767 23.1236 46.7527 21.9422 46.5844 20.628Z" fill="#FF9B00"/>
<path opacity="0.05" d="M37.6783 23.0939L43.6978 22.7248C43.7781 22.7202 43.8569 22.7109 43.9341 22.6985C44.0499 22.68 44.1627 22.6522 44.2708 22.6182C44.3434 22.5951 44.4129 22.5688 44.4823 22.5379C44.5518 22.5071 44.6167 22.4746 44.6815 22.4391C44.8097 22.3665 44.9302 22.2831 45.0398 22.1889C45.0676 22.1658 45.0939 22.1411 45.1201 22.1164C45.2514 21.9928 45.3657 21.8538 45.4614 21.704C45.6143 21.4631 45.7162 21.1929 45.7579 20.9057C45.7734 20.7976 45.7795 20.6879 45.778 20.5767C45.7764 20.5026 45.7702 20.4269 45.761 20.3528L45.6761 19.7166L45.5911 19.0803C45.4629 18.126 44.6908 17.4218 43.7658 17.2689C45.0275 17.0604 46.2459 17.9376 46.4127 19.2425L46.5007 19.9343L46.5887 20.6261C46.5995 20.708 46.6057 20.7898 46.6073 20.8701C46.6103 20.9921 46.6026 21.111 46.5872 21.2284C46.5439 21.5404 46.4389 21.8353 46.2814 22.0963C46.1826 22.26 46.0652 22.4113 45.9293 22.5457C45.9015 22.5719 45.8753 22.5982 45.8459 22.6244C45.7316 22.7263 45.6081 22.8175 45.4753 22.8962C45.4089 22.9348 45.3394 22.9719 45.2699 23.0043C45.1989 23.0367 45.1263 23.0661 45.0522 23.0908C44.941 23.1294 44.8236 23.1587 44.7047 23.1788C44.6244 23.1927 44.5441 23.202 44.4607 23.2082L38.2404 23.6097C37.4482 23.6606 36.7301 23.3054 36.2808 22.7263C36.6715 22.9858 37.1579 23.1248 37.6783 23.0939Z" fill="black"/>
<path opacity="0.15" d="M41.5966 22.1446C42.5278 22.1446 43.283 21.4204 43.283 20.5262C43.283 19.6321 42.5278 18.9078 41.5966 18.9078C41.2492 18.9078 40.9264 19.0082 40.6577 19.1827C40.9712 18.9094 41.3804 18.7441 41.8283 18.7441C42.8135 18.7441 43.6119 19.5425 43.6119 20.5278C43.6119 21.513 42.8135 22.3114 41.8283 22.3114C41.3804 22.3114 40.9712 22.1462 40.6577 21.8728C40.9264 22.0442 41.2492 22.1446 41.5966 22.1446Z" fill="url(#paint1_linear_1246_2874)"/>
<path opacity="0.15" d="M36.6582 20.8263C36.6458 20.9004 36.6381 20.9776 36.6381 21.0564C36.6381 21.7992 37.2404 22.3999 37.9816 22.3999C38.7244 22.3999 39.3251 21.7976 39.3251 21.0564C39.3251 20.3275 38.7445 19.7345 38.0202 19.7144C38.0326 19.7144 38.0465 19.7129 38.0588 19.7129C38.8526 19.7129 39.4965 20.3568 39.4965 21.1506C39.4965 21.9444 38.8526 22.5883 38.0588 22.5883C37.2651 22.5883 36.6211 21.9444 36.6211 21.1506C36.6211 21.0394 36.635 20.9313 36.6582 20.8263Z" fill="url(#paint2_linear_1246_2874)"/>
<path d="M26.0624 21.456C26.0624 22.0428 25.5868 22.5185 25 22.5185C24.4131 22.5185 23.9375 22.0428 23.9375 21.456C23.9375 20.8692 24.4131 20.3936 25 20.3936C25.5868 20.3936 26.0624 20.8692 26.0624 21.456Z" fill="#4D4D4D"/>
<path d="M3.59241 19.2444L3.41636 20.628C3.24804 21.9407 4.22402 23.1236 5.54591 23.2085L11.7662 23.61C13.0896 23.6949 14.2092 22.6448 14.2092 21.3199C14.2092 20.3022 13.539 19.4065 12.5646 19.1193L6.52188 17.3341C5.16293 16.9342 3.77154 17.8422 3.59241 19.2444Z" fill="white"/>
<path d="M3.41636 20.628L3.59241 19.2444C3.77155 17.8422 5.16293 16.9342 6.51879 17.3341C6.51879 17.3341 5.54436 18.6946 5.54436 23.2085C4.22402 23.1236 3.24804 21.9422 3.41636 20.628Z" fill="#FF9B00"/>
<path opacity="0.05" d="M12.3217 23.0939L6.30215 22.7248C6.22185 22.7202 6.14309 22.7109 6.06588 22.6985C5.95006 22.68 5.83733 22.6522 5.72923 22.6182C5.65665 22.5951 5.58716 22.5688 5.51767 22.5379C5.44972 22.5086 5.38331 22.4746 5.31845 22.4391C5.19028 22.3665 5.06983 22.2831 4.96018 22.1889C4.93239 22.1658 4.90614 22.1411 4.87989 22.1164C4.74863 21.9928 4.63435 21.8538 4.5386 21.704C4.38572 21.4631 4.2838 21.1929 4.24211 20.9057C4.22666 20.7976 4.22049 20.6879 4.22203 20.5767C4.22357 20.5026 4.22975 20.4269 4.23901 20.3528L4.32395 19.7166L4.40888 19.0803C4.53705 18.126 5.30919 17.4218 6.2342 17.2689C4.97254 17.0604 3.75412 17.9376 3.58734 19.2425L3.49932 19.9343L3.41129 20.6261C3.40048 20.708 3.39431 20.7898 3.39276 20.8701C3.38967 20.9921 3.39739 21.111 3.41284 21.2284C3.45608 21.5404 3.56108 21.8353 3.7186 22.0963C3.81743 22.26 3.93479 22.4113 4.07069 22.5457C4.09848 22.5719 4.12474 22.5982 4.15408 22.6244C4.26836 22.7263 4.39189 22.8175 4.5247 22.8962C4.5911 22.9348 4.6606 22.9719 4.73009 23.0043C4.80113 23.0367 4.87371 23.0661 4.94784 23.0908C5.05902 23.1294 5.17639 23.1587 5.2953 23.1788C5.3756 23.1927 5.45589 23.202 5.53928 23.2082L11.7596 23.6097C12.5518 23.6606 13.2699 23.3054 13.7193 22.7263C13.3286 22.9858 12.8421 23.1248 12.3217 23.0939Z" fill="black"/>
<path opacity="0.15" d="M8.40394 22.1446C7.47275 22.1446 6.7176 21.4204 6.7176 20.5262C6.7176 19.6321 7.47275 18.9078 8.40394 18.9078C8.7514 18.9078 9.07415 19.0082 9.34285 19.1827C9.02936 18.9094 8.62014 18.7441 8.1723 18.7441C7.18706 18.7441 6.38867 19.5425 6.38867 20.5278C6.38867 21.513 7.18706 22.3114 8.1723 22.3114C8.62014 22.3114 9.02936 22.1462 9.34285 21.8728C9.07415 22.0442 8.7514 22.1446 8.40394 22.1446Z" fill="url(#paint3_linear_1246_2874)"/>
<path opacity="0.15" d="M13.3428 20.8263C13.3551 20.9004 13.3628 20.9776 13.3628 21.0564C13.3628 21.7992 12.7606 22.3999 12.0193 22.3999C11.2765 22.3999 10.6758 21.7976 10.6758 21.0564C10.6758 20.3275 11.2565 19.7345 11.9807 19.7144C11.9684 19.7144 11.9545 19.7129 11.9421 19.7129C11.1484 19.7129 10.5044 20.3568 10.5044 21.1506C10.5044 21.9444 11.1484 22.5883 11.9421 22.5883C12.7359 22.5883 13.3798 21.9444 13.3798 21.1506C13.3798 21.0394 13.3659 20.9313 13.3428 20.8263Z" fill="url(#paint4_linear_1246_2874)"/>
<path d="M30.1998 3.68945H20.3335V4.25156H30.1998V3.68945Z" fill="black"/>
<path d="M28.2245 0H22.3053C21.737 0 21.2521 0.409233 21.1564 0.968256L20.6885 3.68925H29.8429L29.375 0.968256C29.2777 0.409233 28.7928 0 28.2245 0Z" fill="url(#paint5_linear_1246_2874)"/>
<path d="M23.2458 0.961914H22.2358V1.97186H23.2458V0.961914Z" fill="black"/>
<path d="M24.256 1.97168H23.2461V2.98162H24.256V1.97168Z" fill="black"/>
<path d="M25.2658 0.961914H24.2559V1.97186H25.2658V0.961914Z" fill="black"/>
<path d="M26.2756 1.97168H25.2656V2.98162H26.2756V1.97168Z" fill="black"/>
<path d="M27.2858 0.961914H26.2759V1.97186H27.2858V0.961914Z" fill="black"/>
<path d="M28.2961 1.97168H27.2861V2.98162H28.2961V1.97168Z" fill="black"/>
<defs>
<linearGradient id="paint0_linear_1246_2874" x1="25.0001" y1="2.57647" x2="25.0001" y2="34.8685" gradientUnits="userSpaceOnUse">
<stop stop-color="#FFCB00"/>
<stop offset="1" stop-color="#FB9A00"/>
</linearGradient>
<linearGradient id="paint1_linear_1246_2874" x1="43.6123" y1="20.5258" x2="40.6582" y2="20.5258" gradientUnits="userSpaceOnUse">
<stop stop-color="#00BFFF"/>
<stop offset="1" stop-color="#007AFF"/>
</linearGradient>
<linearGradient id="paint2_linear_1246_2874" x1="39.4979" y1="21.151" x2="36.6215" y2="21.151" gradientUnits="userSpaceOnUse">
<stop stop-color="#00BFFF"/>
<stop offset="1" stop-color="#007AFF"/>
</linearGradient>
<linearGradient id="paint3_linear_1246_2874" x1="6.38829" y1="20.5258" x2="9.34248" y2="20.5258" gradientUnits="userSpaceOnUse">
<stop stop-color="#00BFFF"/>
<stop offset="1" stop-color="#007AFF"/>
</linearGradient>
<linearGradient id="paint4_linear_1246_2874" x1="10.5031" y1="21.151" x2="13.3794" y2="21.151" gradientUnits="userSpaceOnUse">
<stop stop-color="#00BFFF"/>
<stop offset="1" stop-color="#007AFF"/>
</linearGradient>
<linearGradient id="paint5_linear_1246_2874" x1="25.2657" y1="-0.0229941" x2="25.2657" y2="3.87482" gradientUnits="userSpaceOnUse">
<stop stop-color="#FFCB00"/>
<stop offset="1" stop-color="#FB9A00"/>
</linearGradient>
</defs>
</svg>
