<svg width="228" height="41" viewBox="0 0 228 41" fill="none" xmlns="http://www.w3.org/2000/svg">
<path d="M68.0618 13.588V9.16H87.1058V13.588H68.0618ZM75.0818 34V9.16H80.0858V34H75.0818ZM86.5012 34L95.7172 9.16H98.3452L98.6332 14.02L91.7212 34H86.5012ZM92.1532 28.42V24.352H104.249V28.42H92.1532ZM97.4092 14.02L97.5532 9.16H100.469L109.685 34H104.321L97.4092 14.02ZM110.027 34L118.775 20.284L120.503 18.088L125.795 9.16H131.411L123.059 22.264L121.331 24.46L115.679 34H110.027ZM110.387 9.16H116.219L122.375 19.168L131.771 34H125.939L119.495 23.524L110.387 9.16ZM133.674 31.12L136.158 27.052C137.214 27.964 138.426 28.696 139.794 29.248C141.186 29.776 142.59 30.04 144.006 30.04C144.894 30.04 145.638 29.932 146.238 29.716C146.862 29.476 147.33 29.164 147.642 28.78C147.978 28.396 148.146 27.976 148.146 27.52C148.146 27.088 148.002 26.668 147.714 26.26C147.426 25.828 146.91 25.408 146.166 25C145.446 24.568 144.402 24.124 143.034 23.668C141.042 23.02 139.446 22.3 138.246 21.508C137.046 20.692 136.182 19.816 135.654 18.88C135.126 17.92 134.862 16.912 134.862 15.856C134.862 14.56 135.21 13.372 135.906 12.292C136.626 11.212 137.658 10.36 139.002 9.736C140.37 9.088 142.014 8.764 143.934 8.764C145.494 8.764 147.054 9.028 148.614 9.556C150.198 10.084 151.554 10.768 152.682 11.608L150.306 15.532C149.346 14.788 148.29 14.188 147.138 13.732C145.986 13.276 144.786 13.048 143.538 13.048C142.338 13.048 141.426 13.288 140.802 13.768C140.178 14.248 139.866 14.8 139.866 15.424C139.866 15.832 140.01 16.228 140.298 16.612C140.61 16.996 141.114 17.38 141.81 17.764C142.53 18.124 143.514 18.508 144.762 18.916C146.826 19.588 148.482 20.344 149.73 21.184C150.978 22 151.878 22.9 152.43 23.884C153.006 24.868 153.294 25.948 153.294 27.124C153.294 28.42 152.934 29.62 152.214 30.724C151.494 31.828 150.402 32.716 148.938 33.388C147.474 34.06 145.662 34.396 143.502 34.396C142.35 34.396 141.186 34.264 140.01 34C138.858 33.712 137.742 33.328 136.662 32.848C135.606 32.368 134.61 31.792 133.674 31.12ZM158.256 34V9.16H163.26V34H158.256ZM160.632 34V29.572H175.428V34H160.632ZM160.632 23.56V19.348H173.52V23.56H160.632ZM160.632 13.588V9.16H175.248V13.588H160.632ZM179.14 21.58C179.14 19.54 179.452 17.728 180.076 16.144C180.724 14.56 181.6 13.228 182.704 12.148C183.808 11.044 185.08 10.204 186.52 9.628C187.96 9.052 189.484 8.764 191.092 8.764C192.628 8.764 194.044 9.004 195.34 9.484C196.66 9.94 197.908 10.624 199.084 11.536L196.168 15.388C195.424 14.812 194.62 14.356 193.756 14.02C192.892 13.66 191.968 13.48 190.984 13.48C189.736 13.48 188.596 13.78 187.564 14.38C186.556 14.98 185.752 15.892 185.152 17.116C184.552 18.316 184.252 19.804 184.252 21.58C184.252 23.356 184.552 24.856 185.152 26.08C185.752 27.28 186.568 28.18 187.6 28.78C188.632 29.38 189.772 29.68 191.02 29.68C192.052 29.68 193 29.5 193.864 29.14C194.752 28.756 195.568 28.228 196.312 27.556L199.3 31.336C198.124 32.344 196.876 33.112 195.556 33.64C194.236 34.144 192.772 34.396 191.164 34.396C189.532 34.396 187.984 34.108 186.52 33.532C185.08 32.956 183.808 32.128 182.704 31.048C181.6 29.944 180.724 28.6 180.076 27.016C179.452 25.432 179.14 23.62 179.14 21.58ZM201.851 21.58C201.851 19.54 202.151 17.728 202.751 16.144C203.351 14.56 204.179 13.216 205.235 12.112C206.291 11.008 207.515 10.18 208.907 9.628C210.299 9.052 211.775 8.764 213.335 8.764C214.919 8.764 216.407 9.052 217.799 9.628C219.191 10.18 220.415 11.008 221.471 12.112C222.527 13.216 223.343 14.56 223.919 16.144C224.519 17.728 224.819 19.54 224.819 21.58C224.819 23.62 224.519 25.432 223.919 27.016C223.343 28.6 222.527 29.944 221.471 31.048C220.415 32.152 219.191 32.992 217.799 33.568C216.407 34.12 214.919 34.396 213.335 34.396C211.775 34.396 210.299 34.12 208.907 33.568C207.515 32.992 206.291 32.152 205.235 31.048C204.179 29.944 203.351 28.6 202.751 27.016C202.151 25.432 201.851 23.62 201.851 21.58ZM206.963 21.58C206.963 22.972 207.119 24.184 207.431 25.216C207.767 26.248 208.223 27.112 208.799 27.808C209.375 28.504 210.047 29.032 210.815 29.392C211.583 29.728 212.423 29.896 213.335 29.896C214.247 29.896 215.087 29.728 215.855 29.392C216.623 29.032 217.295 28.504 217.871 27.808C218.447 27.112 218.891 26.248 219.203 25.216C219.539 24.184 219.707 22.972 219.707 21.58C219.707 20.188 219.539 18.976 219.203 17.944C218.891 16.912 218.447 16.048 217.871 15.352C217.295 14.656 216.623 14.14 215.855 13.804C215.087 13.444 214.247 13.264 213.335 13.264C212.423 13.264 211.583 13.444 210.815 13.804C210.047 14.14 209.375 14.656 208.799 15.352C208.223 16.048 207.767 16.912 207.431 17.944C207.119 18.976 206.963 20.188 206.963 21.58Z" fill="#1B1B1B"/>
<path d="M11.9111 14.076L16.2524 7.72617C17.1899 6.36748 18.7358 5.55469 20.3891 5.55469H35.7229C37.3745 5.55469 38.9204 6.36574 39.8597 7.72617L44.2355 14.076H11.9111Z" fill="#3F0303"/>
<path d="M11.7816 40.9997H2.7161C1.21703 40.9997 0.00390625 39.7849 0.00390625 38.2876V33.9619L14.4955 35.7625V38.2858C14.4937 39.7849 13.2789 40.9997 11.7816 40.9997Z" fill="#1F0606"/>
<path d="M53.3978 41.0001H44.3323C42.8332 41.0001 41.6201 39.7852 41.6201 38.2879V35.7646L56.1117 32.4424V38.2879C56.11 39.7852 54.8951 41.0001 53.3978 41.0001Z" fill="#1F0606"/>
<g opacity="0.1">
<path d="M15.6873 14.8715H15.4014L21.4132 5.09375H21.6992L15.6873 14.8715Z" fill="white"/>
<path d="M18.1901 14.8715H17.6182L23.63 5.09375H24.2019L18.1901 14.8715Z" fill="white"/>
<path d="M22.144 14.8715H20.125L26.1369 5.09375H28.1559L22.144 14.8715Z" fill="white"/>
<path d="M24.6205 14.8715H24.1543L30.1662 5.09375H30.6324L24.6205 14.8715Z" fill="white"/>
</g>
<path d="M55.6215 25.647L55.0409 22.4669C54.5314 19.675 52.6979 17.3042 50.1261 16.1067L45.7675 14.0773H32.7854L32.2638 13.8451C31.7785 13.6285 31.2551 13.5176 30.7231 13.5176H25.3906C24.8603 13.5176 24.3352 13.6302 23.8499 13.8451L23.3283 14.0773H10.3444L5.98588 16.1067C3.41407 17.3042 1.58052 19.675 1.07101 22.4669L0.49045 25.647C0.164641 27.4303 0 29.2396 0 31.0523V32.4422V33.9621C0 36.9706 2.43837 39.4107 5.44864 39.4107H15.469C16.4984 39.4107 17.4984 39.0693 18.3129 38.4402C19.1274 37.8112 20.1274 37.4697 21.1568 37.4697H34.9517C35.9811 37.4697 36.9811 37.8112 37.7956 38.4402C38.6101 39.0693 39.6101 39.4107 40.6395 39.4107H50.6599C53.6684 39.4107 56.1085 36.9724 56.1085 33.9621V32.4422V31.0523C56.1102 29.2396 55.9473 27.4303 55.6215 25.647Z" fill="url(#paint0_linear_1246_513)"/>
<path d="M42.2802 36.4873H50.6369C52.1637 36.4873 53.3716 35.1962 53.2693 33.6728L53.1619 32.0524C53.0631 30.5794 51.7755 29.4737 50.3041 29.5985L41.6563 30.3385C39.8418 30.4945 38.7258 32.399 39.4779 34.0575L39.8765 34.9379C40.3046 35.8807 41.2439 36.4873 42.2802 36.4873Z" fill="#690000"/>
<path d="M41.3036 35.7027H49.6602C51.187 35.7027 52.3949 34.4116 52.2927 32.8882L52.1852 31.2679C52.1488 30.7289 51.953 30.2384 51.648 29.8398C52.4885 30.2332 53.0968 31.0599 53.1627 32.0546L53.2701 33.675C53.3724 35.1984 52.1645 36.4895 50.6377 36.4895H42.281C41.4491 36.4895 40.6797 36.0978 40.1875 35.4548C40.5306 35.6143 40.9102 35.7027 41.3036 35.7027Z" fill="#3F0303"/>
<path d="M13.8311 36.4873H5.47445C3.94765 36.4873 2.73973 35.1962 2.84198 33.6728L2.94943 32.0524C3.04821 30.5794 4.33585 29.4737 5.80719 29.5985L14.455 30.3385C16.2695 30.4945 17.3855 32.399 16.6334 34.0575L16.2348 34.9379C15.8067 35.8807 14.8674 36.4873 13.8311 36.4873Z" fill="#690000"/>
<path d="M13.8311 36.4873H5.47445C3.94765 36.4873 2.73973 35.1962 2.84198 33.6728L2.94943 32.0524C3.04821 30.5794 4.33585 29.4737 5.80719 29.5985L14.455 30.3385C16.2695 30.4945 17.3855 32.399 16.6334 34.0575L16.2348 34.9379C15.8067 35.8807 14.8674 36.4873 13.8311 36.4873Z" fill="#690000"/>
<path d="M14.8085 35.7027H6.45188C4.92508 35.7027 3.71716 34.4116 3.81941 32.8882L3.92686 31.2679C3.96325 30.7289 4.15908 30.2384 4.46409 29.8398C3.62358 30.2332 3.01528 31.0599 2.94943 32.0546L2.84198 33.675C2.73973 35.1984 3.94765 36.4895 5.47445 36.4895H13.8311C14.663 36.4895 15.4324 36.0978 15.9246 35.4548C15.5815 35.6143 15.2019 35.7027 14.8085 35.7027Z" fill="#3F0303"/>
<path d="M37.5491 32.1356C37.3706 31.4771 36.7727 31.0195 36.0899 31.0195H28.0556H20.023C19.3402 31.0195 18.7423 31.4771 18.5621 32.1356L18.2189 33.4007C17.9572 34.3625 18.6816 35.3088 19.6799 35.3088H28.0556H36.4313C37.4278 35.3088 38.1522 34.3625 37.8922 33.4007L37.5491 32.1356Z" fill="#690000"/>
<path d="M37.5491 32.1356C37.3706 31.4771 36.7727 31.0195 36.0899 31.0195H28.0556H20.023C19.3402 31.0195 18.7423 31.4771 18.5621 32.1356L18.2189 33.4007C17.9572 34.3625 18.6816 35.3088 19.6799 35.3088H28.0556H36.4313C37.4278 35.3088 38.1522 34.3625 37.8922 33.4007L37.5491 32.1356Z" fill="#690000"/>
<path d="M37.8922 33.4005L37.5491 32.1354C37.5266 32.0522 37.4971 31.9708 37.4607 31.8945L37.6046 32.4404C37.8576 33.4023 37.154 34.3485 36.187 34.3485H28.0556H19.9242C18.9572 34.3485 18.2536 33.4023 18.5066 32.4404L18.6504 31.8945C18.6141 31.9708 18.5846 32.0522 18.5621 32.1354L18.2189 33.4005C17.9572 34.3624 18.6816 35.3086 19.6781 35.3086H28.0556H36.4313C37.4278 35.3103 38.1522 34.3624 37.8922 33.4005Z" fill="#3F0303"/>
<path d="M36.2273 23.5759L32.6625 23.4338C29.5933 23.3124 26.5189 23.3124 23.4497 23.4338L19.8849 23.5759C18.9993 23.6105 18.2368 24.127 17.9889 24.8618C17.6198 25.9501 18.5002 27.0558 19.8104 27.1494C25.2988 27.5393 30.8151 27.5393 36.3036 27.1494C37.6137 27.0558 38.4941 25.9501 38.125 24.8618C37.8754 24.127 37.1129 23.6105 36.2273 23.5759Z" fill="#690000"/>
<path d="M38.1248 24.8604C38.0572 24.6611 37.9497 24.4774 37.8128 24.3145C38.0936 25.3716 37.2565 26.4201 36.0261 26.5102C30.7213 26.9001 25.3905 26.9001 20.0857 26.5102C18.8552 26.4201 18.0164 25.3716 18.2989 24.3145C18.162 24.4774 18.0563 24.6593 17.987 24.8604C17.6179 25.9487 18.4982 27.0544 19.8084 27.148C25.2969 27.5379 30.8131 27.5379 36.3016 27.148C37.6118 27.0544 38.4939 25.9487 38.1248 24.8604Z" fill="#3F0303"/>
<path d="M34.0131 18.9268H22.0986C21.8906 18.9268 21.745 18.7188 21.8178 18.5247C22.1055 17.7414 22.8524 17.2197 23.6878 17.2197H32.4239C33.2593 17.2197 34.0062 17.7414 34.2939 18.5247C34.3667 18.7188 34.2228 18.9268 34.0131 18.9268Z" fill="#690000"/>
<path d="M33.1594 18.9265H22.9519C22.7734 18.9265 22.6503 18.7965 22.711 18.6735C22.9588 18.1813 23.5983 17.8555 24.314 17.8555H31.7972C32.513 17.8555 33.1525 18.1813 33.4003 18.6735C33.4609 18.7965 33.3379 18.9265 33.1594 18.9265Z" fill="#3F0303"/>
<g opacity="0.1">
<path d="M21.557 14.0762L17.3613 21.185L23.3281 14.0762H21.557Z" fill="#0000FF"/>
<path d="M34.5544 14.0762L38.75 21.185L32.7832 14.0762H34.5544Z" fill="#0000FF"/>
</g>
<path d="M52.0806 22.5959L52.2781 24.1487C52.467 25.6218 51.3718 26.9493 49.8883 27.0446L42.9077 27.4952C41.4225 27.5905 40.166 26.412 40.166 24.9251C40.166 23.783 40.9182 22.7779 42.0117 22.4555L48.793 20.4522C50.3181 20.0033 51.8795 21.0223 52.0806 22.5959Z" fill="white"/>
<path d="M52.2785 24.1487L52.081 22.5959C51.8799 21.0223 50.3185 20.0033 48.7969 20.4522C48.7969 20.4522 49.8904 21.979 49.8904 27.0446C51.3721 26.9493 52.4674 25.6235 52.2785 24.1487Z" fill="#A8000F"/>
<path opacity="0.05" d="M42.2842 26.9161L49.0395 26.5019C49.1297 26.4967 49.218 26.4863 49.3047 26.4724C49.4347 26.4516 49.5612 26.4204 49.6825 26.3823C49.764 26.3563 49.8419 26.3269 49.9199 26.2922C49.9979 26.2575 50.0707 26.2211 50.1435 26.1813C50.2873 26.0998 50.4225 26.0062 50.5455 25.9005C50.5767 25.8745 50.6062 25.8468 50.6357 25.8191C50.783 25.6804 50.9112 25.5245 51.0187 25.3564C51.1902 25.086 51.3046 24.7827 51.3514 24.4604C51.3687 24.3391 51.3757 24.216 51.3739 24.0913C51.3722 24.0081 51.3653 23.9231 51.3549 23.84L51.2596 23.126L51.1642 22.4119C51.0204 21.3409 50.1539 20.5507 49.1158 20.3791C50.5317 20.1451 51.899 21.1295 52.0862 22.5939L52.185 23.3703L52.2838 24.1467C52.2959 24.2386 52.3028 24.3304 52.3046 24.4205C52.308 24.5574 52.2994 24.6909 52.282 24.8226C52.2335 25.1727 52.1157 25.5037 51.9389 25.7965C51.828 25.9803 51.6963 26.1501 51.5438 26.3009C51.5126 26.3303 51.4831 26.3598 51.4502 26.3892C51.3219 26.5036 51.1833 26.6059 51.0342 26.6943C50.9597 26.7376 50.8817 26.7792 50.8038 26.8156C50.724 26.852 50.6426 26.8849 50.5594 26.9126C50.4346 26.9559 50.3029 26.9889 50.1695 27.0114C50.0794 27.027 49.9892 27.0374 49.8957 27.0443L42.915 27.4949C42.026 27.5521 41.2201 27.1535 40.7158 26.5036C41.1543 26.7948 41.7002 26.9507 42.2842 26.9161Z" fill="#1F0606"/>
<path opacity="0.15" d="M46.6806 25.8503C47.7256 25.8503 48.5731 25.0375 48.5731 24.0341C48.5731 23.0307 47.7256 22.2179 46.6806 22.2179C46.2907 22.2179 45.9285 22.3305 45.627 22.5264C45.9788 22.2196 46.438 22.0342 46.9406 22.0342C48.0463 22.0342 48.9422 22.9302 48.9422 24.0358C48.9422 25.1415 48.0463 26.0375 46.9406 26.0375C46.438 26.0375 45.9788 25.852 45.627 25.5453C45.9285 25.7377 46.2907 25.8503 46.6806 25.8503Z" fill="url(#paint1_linear_1246_513)"/>
<path opacity="0.15" d="M41.1383 24.3716C41.1244 24.4548 41.1157 24.5414 41.1157 24.6298C41.1157 25.4634 41.7916 26.1375 42.6235 26.1375C43.4571 26.1375 44.1312 25.4617 44.1312 24.6298C44.1312 23.8118 43.4796 23.1463 42.6668 23.1238C42.6807 23.1238 42.6963 23.1221 42.7101 23.1221C43.6009 23.1221 44.3236 23.8447 44.3236 24.7355C44.3236 25.6263 43.6009 26.349 42.7101 26.349C41.8194 26.349 41.0967 25.6263 41.0967 24.7355C41.0967 24.6107 41.1123 24.4894 41.1383 24.3716Z" fill="url(#paint2_linear_1246_513)"/>
<path d="M29.2479 25.079C29.2479 25.7376 28.7142 26.2714 28.0556 26.2714C27.3971 26.2714 26.8633 25.7376 26.8633 25.079C26.8633 24.4205 27.3971 23.8867 28.0556 23.8867C28.7142 23.8867 29.2479 24.4205 29.2479 25.079Z" fill="#E81C2E"/>
<path d="M4.03128 22.5959L3.83371 24.1487C3.64481 25.6218 4.74009 26.9493 6.22356 27.0446L13.2042 27.4952C14.6894 27.5905 15.9458 26.412 15.9458 24.9251C15.9458 23.783 15.1937 22.7779 14.1002 22.4555L7.31884 20.4522C5.79377 20.0033 4.23231 21.0223 4.03128 22.5959Z" fill="white"/>
<path d="M3.83371 24.1487L4.03128 22.5959C4.23231 21.0223 5.79377 20.0033 7.31537 20.4522C7.31537 20.4522 6.22183 21.979 6.22183 27.0446C4.74009 26.9493 3.64481 25.6235 3.83371 24.1487Z" fill="#A8000F"/>
<path opacity="0.05" d="M13.8278 26.9161L7.07241 26.5019C6.98229 26.4967 6.89391 26.4863 6.80726 26.4724C6.67729 26.4516 6.55078 26.4204 6.42946 26.3823C6.34801 26.3563 6.27003 26.3269 6.19204 26.2922C6.11579 26.2593 6.04126 26.2211 5.96847 26.1813C5.82463 26.0998 5.68945 26.0062 5.56641 25.9005C5.53522 25.8745 5.50576 25.8468 5.4763 25.8191C5.32899 25.6804 5.20074 25.5245 5.0933 25.3564C4.92173 25.086 4.80735 24.7827 4.76056 24.4604C4.74323 24.3391 4.7363 24.216 4.73803 24.0913C4.73976 24.0081 4.74669 23.9231 4.75709 23.84L4.8524 23.126L4.94772 22.4119C5.09156 21.3409 5.95807 20.5507 6.99616 20.3791C5.58027 20.1451 4.21292 21.1295 4.02576 22.5939L3.92697 23.3703L3.82819 24.1467C3.81606 24.2386 3.80913 24.3304 3.80739 24.4205C3.80393 24.5574 3.81259 24.6909 3.82992 24.8226C3.87845 25.1727 3.99629 25.5037 4.17306 25.7965C4.28397 25.9803 4.41568 26.1501 4.56818 26.3009C4.59938 26.3303 4.62885 26.3598 4.66177 26.3892C4.79002 26.5036 4.92865 26.6059 5.07769 26.6943C5.15221 26.7376 5.2302 26.7792 5.30819 26.8156C5.38791 26.852 5.46937 26.8849 5.55255 26.9126C5.67733 26.9559 5.80904 26.9889 5.94248 27.0114C6.0326 27.027 6.12271 27.0374 6.21629 27.0443L13.1969 27.4949C14.086 27.5521 14.8918 27.1535 15.3961 26.5036C14.9577 26.7948 14.4118 26.9507 13.8278 26.9161Z" fill="#1F0606"/>
<path opacity="0.15" d="M9.43153 25.8503C8.38652 25.8503 7.53906 25.0375 7.53906 24.0341C7.53906 23.0307 8.38652 22.2179 9.43153 22.2179C9.82146 22.2179 10.1837 22.3305 10.4852 22.5264C10.1334 22.2196 9.67415 22.0342 9.17158 22.0342C8.06591 22.0342 7.16992 22.9302 7.16992 24.0358C7.16992 25.1415 8.06591 26.0375 9.17158 26.0375C9.67415 26.0375 10.1334 25.852 10.4852 25.5453C10.1837 25.7377 9.82146 25.8503 9.43153 25.8503Z" fill="url(#paint3_linear_1246_513)"/>
<path opacity="0.15" d="M14.9734 24.3716C14.9873 24.4548 14.9959 24.5414 14.9959 24.6298C14.9959 25.4634 14.32 26.1375 13.4882 26.1375C12.6546 26.1375 11.9804 25.4617 11.9804 24.6298C11.9804 23.8118 12.6321 23.1463 13.4449 23.1238C13.431 23.1238 13.4154 23.1221 13.4015 23.1221C12.5108 23.1221 11.7881 23.8447 11.7881 24.7355C11.7881 25.6263 12.5108 26.349 13.4015 26.349C14.2923 26.349 15.015 25.6263 15.015 24.7355C15.015 24.6107 14.9994 24.4894 14.9734 24.3716Z" fill="url(#paint4_linear_1246_513)"/>
<path d="M33.8907 5.14062H22.8184V5.77144H33.8907V5.14062Z" fill="#1F0606"/>
<path d="M31.674 1H25.0313C24.3935 1 23.8494 1.45926 23.7419 2.08661L23.2168 5.1402H33.4902L32.9651 2.08661C32.8559 1.45926 32.3117 1 31.674 1Z" fill="url(#paint5_linear_1246_513)"/>
<path d="M26.0865 2.08008H24.9531V3.21348H26.0865V2.08008Z" fill="#1F0606"/>
<path d="M27.2203 3.21289H26.0869V4.34629H27.2203V3.21289Z" fill="#1F0606"/>
<path d="M28.3541 2.08008H27.2207V3.21348H28.3541V2.08008Z" fill="#1F0606"/>
<path d="M29.4869 3.21289H28.3535V4.34629H29.4869V3.21289Z" fill="#1F0606"/>
<path d="M30.6207 2.08008H29.4873V3.21348H30.6207V2.08008Z" fill="#1F0606"/>
<path d="M31.7535 3.21289H30.6201V4.34629H31.7535V3.21289Z" fill="#1F0606"/>
<defs>
<linearGradient id="paint0_linear_1246_513" x1="28.056" y1="3.89124" x2="28.056" y2="40.1305" gradientUnits="userSpaceOnUse">
<stop stop-color="#EF1F23"/>
<stop offset="1" stop-color="#C40307"/>
</linearGradient>
<linearGradient id="paint1_linear_1246_513" x1="48.9427" y1="24.0336" x2="45.6275" y2="24.0336" gradientUnits="userSpaceOnUse">
<stop stop-color="#00BFFF"/>
<stop offset="1" stop-color="#007AFF"/>
</linearGradient>
<linearGradient id="paint2_linear_1246_513" x1="44.3251" y1="24.7359" x2="41.0972" y2="24.7359" gradientUnits="userSpaceOnUse">
<stop stop-color="#00BFFF"/>
<stop offset="1" stop-color="#007AFF"/>
</linearGradient>
<linearGradient id="paint3_linear_1246_513" x1="7.16949" y1="24.0336" x2="10.4848" y2="24.0336" gradientUnits="userSpaceOnUse">
<stop stop-color="#00BFFF"/>
<stop offset="1" stop-color="#007AFF"/>
</linearGradient>
<linearGradient id="paint4_linear_1246_513" x1="11.7866" y1="24.7359" x2="15.0146" y2="24.7359" gradientUnits="userSpaceOnUse">
<stop stop-color="#00BFFF"/>
<stop offset="1" stop-color="#007AFF"/>
</linearGradient>
<linearGradient id="paint5_linear_1246_513" x1="28.3538" y1="-0.53921" x2="28.3538" y2="5.25529" gradientUnits="userSpaceOnUse">
<stop stop-color="#EF1F23"/>
<stop offset="1" stop-color="#C40307"/>
</linearGradient>
</defs>
</svg>
